<?xml version="1.0" encoding="utf-8"?>
<!-- Generator: Adobe Illustrator 27.8.1, SVG Export Plug-In . SVG Version: 6.00 Build 0)  -->
<!DOCTYPE svg PUBLIC "-//W3C//DTD SVG 1.1//EN" "http://www.w3.org/Graphics/SVG/1.1/DTD/svg11.dtd" [
	<!ENTITY ns_extend "http://ns.adobe.com/Extensibility/1.0/">
	<!ENTITY ns_ai "http://ns.adobe.com/AdobeIllustrator/10.0/">
	<!ENTITY ns_graphs "http://ns.adobe.com/Graphs/1.0/">
	<!ENTITY ns_vars "http://ns.adobe.com/Variables/1.0/">
	<!ENTITY ns_imrep "http://ns.adobe.com/ImageReplacement/1.0/">
	<!ENTITY ns_sfw "http://ns.adobe.com/SaveForWeb/1.0/">
	<!ENTITY ns_custom "http://ns.adobe.com/GenericCustomNamespace/1.0/">
	<!ENTITY ns_adobe_xpath "http://ns.adobe.com/XPath/1.0/">
]>
<svg version="1.1" id="a" xmlns:x="&ns_extend;" xmlns:i="&ns_ai;" xmlns:graph="&ns_graphs;"
	 xmlns="http://www.w3.org/2000/svg" xmlns:xlink="http://www.w3.org/1999/xlink" x="0px" y="0px" viewBox="0 0 229.2 95.5"
	 style="enable-background:new 0 0 229.2 95.5;" xml:space="preserve">
<style type="text/css">
	.st0{fill:#3DE2FF;}
	.st1{fill:#FFFFFF;}
	.st2{fill:#00FF9B;}
	.st3{fill:#FF3131;}
</style>
<metadata>
	<sfw  xmlns="&ns_sfw;">
		<slices></slices>
		<sliceSourceBounds  bottomLeftOrigin="true" height="69.5" width="209.4" x="17.9" y="9.8"></sliceSourceBounds>
	</sfw>
</metadata>
<path class="st0" d="M52.7,61.8c-2-1.2-4.4-2-6.6-2.8c-1.2-0.4-2.5-0.6-3.7-0.9c0-0.3,0.1-0.6,0.1-0.8c0.7-2.3,2.4-3.8,4.4-4.7
	c3.5-1.6,7.1-3,10.7-4.4c2.2-0.8,4.2-1.9,5.8-3.7c0.5-0.6,0.9-1.2,1.3-1.8v6.2c-2.3,0.5-4.5,0.7-6.6,1.4c-2,0.7-3.8,1.9-5.7,2.9
	l0.1,0.2h16.2V37.8c-1.7,0-3.4,0-5,0c-0.6-0.1-1.3,0.3-1.5,0.9c-1.3,2.3-3.3,4.1-5.8,5c-2.8,1-5.6,2.1-8.3,3.2
	c-2.9,1.2-5.8,2.5-8,4.9c-3.8,4.2-2.7,9.2,2.5,11.3c1.1,0.4,2.2,0.7,3.3,1c1,0.3,2,0.7,3,1.1c4.8,2.5,5.5,7.1,1.8,10.9
	c-0.5-0.1-0.9-0.1-1.3-0.1c-2.5-0.3-5.1-0.3-7.4-1c-9.9-2.9-19-11.8-19.8-23.6c-0.1-1.1-0.6-1.8-1.7-2.1c-1.8-0.4-2.8,0.6-2.6,2.7
	c1,10.6,6.5,18.3,15.3,23.8c4.1,2.6,8.8,4.1,13.6,4.4l-2.2,1.6l3,4.2c3.2-2.4,7.4-7.3,8.9-10.6C59,70.2,57.5,64.6,52.7,61.8
	L52.7,61.8z"/>
<path class="st0" d="M59.1,37.8l-2.6-0.1V26.6H41.5v11.1H29v15.6h6.6l2.7-4.2h-5.2V42h12.7V30.8h6.6v11.6C55,41.7,58,39.7,59.1,37.8
	L59.1,37.8z"/>
<path class="st0" d="M19.6,45.3c1.5,0.2,2.5-0.6,2.7-2.2c1.5-10,7.3-16.6,16.3-20.6c2.3-1,4.8-1.4,7.2-2.1c1.2-0.3,1.9-1.3,1.7-2.5
	c-0.2-1.2-1-1.7-2.7-1.7c-0.9,0.2-2.3,0.5-3.7,0.8C29,20.2,19.8,30.3,17.9,42.4C17.7,44.1,18.3,45.1,19.6,45.3z"/>
<path class="st0" d="M52.5,20.5c0.3,0.1,0.6,0.1,0.9,0.2c7.6,1.4,13.7,5.4,18.2,11.6c2.3,3.2,3.8,6.8,4.2,10.8
	c0.1,1,0.5,2.1,1.6,2.1c0.8,0,1.9-0.3,2.4-0.9c0.5-0.6,0.4-1.7,0.3-2.5c-1.9-10.1-7.8-17.3-16.6-22.2c-3.2-1.8-6.7-2.9-10.3-3.4
	c-1.6,0-2.5,0.6-2.6,1.7C50.6,19.3,51.1,20.2,52.5,20.5L52.5,20.5z"/>
<path class="st0" d="M78.2,49c-1.3-0.1-2.1,0.8-2.3,2.3c-0.9,9.7-6,16.6-14.4,21.3c-0.5,0.3-0.9,0.8-1.2,1.3
	c-0.8,1.6-1.4,3.2-2.1,4.8c6.5-2,11.8-5.9,16-11.4c3.5-4.6,5.6-10,6.1-15.8C80.4,50,79.6,49.1,78.2,49L78.2,49z"/>
<path class="st1" d="M106.9,40.6l0.9,0.3c-0.4,1.8-0.8,3.3-1.1,4.6H95.4v-0.7c1.6-1.4,3.1-2.9,4.6-4.6c2.1-2.3,3.1-4.5,3.1-6.5
	c0-1-0.3-1.8-0.8-2.4c-0.5-0.6-1.2-0.9-2.1-0.9c-0.8,0-1.5,0.2-2.1,0.7c-0.6,0.4-1.2,1.1-1.7,1.8l-0.8-0.7l1.8-2.6
	c1.1-1.2,2.6-1.8,4.2-1.8c1.5,0,2.7,0.5,3.7,1.4s1.5,2.1,1.5,3.6c0,1-0.3,2-0.9,3c-0.6,1-1.6,2.1-3,3.5l-3.3,3.1h4.4
	c0.6,0,1.1,0,1.4-0.1c0.3-0.1,0.5-0.2,0.7-0.5C106.2,41.7,106.5,41.2,106.9,40.6z"/>
<path class="st1" d="M120.2,45.5h-8.7v-1c0.8-0.1,1.3-0.2,1.7-0.3c0.4-0.2,0.6-0.4,0.7-0.7c0.1-0.3,0.2-0.9,0.2-1.6V32
	c0-0.7-0.1-1.2-0.2-1.4c-0.1-0.2-0.5-0.3-1-0.4l-1.5-0.1v-0.9c1.5-0.2,3.6-0.7,6.5-1.4V42c0,0.7,0,1.2,0.1,1.6
	c0.1,0.3,0.3,0.5,0.7,0.7c0.4,0.2,0.9,0.3,1.7,0.3L120.2,45.5L120.2,45.5z"/>
<path class="st1" d="M132.2,36.6l-0.9,0.3c-0.9-1.9-1.9-2.8-3-2.8c-0.4,0-0.7,0.1-1,0.4c-0.3,0.3-0.4,0.6-0.4,1.1
	c0,0.9,0.7,1.6,2.1,2.1c1.3,0.5,2.2,1.1,2.8,1.7c0.6,0.6,0.9,1.4,0.9,2.4c0,1.3-0.5,2.3-1.6,3c-1,0.7-2.2,1.1-3.5,1.1
	c-0.7,0-1.4-0.1-2.1-0.3c-0.7-0.2-1.2-0.4-1.5-0.6c-0.2-0.8-0.4-2.1-0.4-3.8l0.8,0c0.4,1,0.9,1.9,1.5,2.6s1.4,1.1,2.2,1.1
	c0.4,0,0.8-0.1,1.1-0.4c0.3-0.3,0.4-0.6,0.4-1.1c0-0.4-0.1-0.8-0.4-1.2c-0.3-0.3-0.8-0.7-1.7-1.1c-1-0.5-1.9-1-2.6-1.6
	c-0.7-0.6-1.1-1.5-1.1-2.5c0-1.1,0.4-2.1,1.3-2.8c0.9-0.8,2-1.1,3.5-1.1h0.2c0.8,0,1.7,0.2,2.5,0.5c0.1,0.3,0.3,0.8,0.4,1.6
	C132.1,35.7,132.2,36.2,132.2,36.6L132.2,36.6z"/>
<path class="st1" d="M143.2,44.4l-2.3,1.1c-0.4,0.2-0.8,0.3-1.1,0.3c-2.3,0-3.5-1.2-3.5-3.5v-7.7h-1.8l-0.2-0.4l0.8-1h1.1v-2.1
	l3.2-2.2l0.4,0.2v4.1h2.7c0.1,0.1,0.2,0.3,0.2,0.5c0,0.4-0.1,0.7-0.4,0.8h-2.5v6.8c0,1.6,0.5,2.4,1.6,2.4c0.4,0,0.9-0.1,1.4-0.4
	L143.2,44.4L143.2,44.4z"/>
<path class="st1" d="M105.1,60l0.6,0.2c-0.3,1-0.6,1.9-1,2.7c-1.4,0.3-2.5,0.4-3.2,0.4c-1.4,0-2.6-0.3-3.6-0.8c-1-0.5-1.7-1.2-2.1-2
	c-0.5-0.8-0.7-1.7-0.7-2.6c0-1.7,0.6-3,1.8-4.1c1.2-1,2.8-1.6,4.9-1.6c0.6,0,1.1,0,1.5,0.1c0.4,0.1,1,0.2,1.6,0.3
	c0.2,1.3,0.3,2.2,0.4,2.7l-0.6,0.1c-0.2-0.9-0.7-1.6-1.2-1.9c-0.6-0.4-1.2-0.6-2-0.6c-1.2,0-2.2,0.4-2.8,1.3s-1,2-1,3.2
	c0,1.5,0.4,2.7,1.1,3.6s1.7,1.4,2.9,1.4c0.7,0,1.3-0.2,1.9-0.6C104.2,61.5,104.7,60.9,105.1,60L105.1,60z"/>
<path class="st1" d="M112.7,61.1l0.3,0.4c-0.5,0.7-1,1.1-1.5,1.4c-0.5,0.3-1,0.4-1.5,0.4c-1.1,0-1.9-0.3-2.5-1
	c-0.6-0.7-0.9-1.5-0.9-2.5c0-0.6,0.1-1.1,0.3-1.6c0.2-0.5,0.5-0.9,0.9-1.3c0.8-0.8,1.7-1.2,2.5-1.2h0c0.7,0,1.4,0.3,1.9,0.8
	c0.5,0.5,0.8,1.1,0.8,1.8c0,0.4-0.2,0.5-0.5,0.6c-0.7,0.1-2,0.2-3.9,0.3c0,0.8,0.3,1.5,0.7,1.9c0.4,0.4,0.9,0.7,1.5,0.7
	C111.5,61.8,112.1,61.5,112.7,61.1L112.7,61.1z M110,56.4L110,56.4c-0.3,0-0.6,0.2-0.9,0.5c-0.2,0.4-0.4,0.8-0.5,1.5
	c0.4,0,1.1,0,2,0c0.2,0,0.4-0.1,0.3-0.3V58c0-0.4-0.1-0.8-0.3-1.1C110.5,56.6,110.3,56.4,110,56.4L110,56.4z"/>
<path class="st1" d="M122.8,63.1H119v-0.5c0.3,0,0.5-0.1,0.6-0.3c0.1-0.2,0.1-0.5,0.1-1.1v-2.7c0-0.5-0.1-0.9-0.3-1.2
	c-0.2-0.2-0.5-0.4-0.8-0.4c-0.4,0-0.8,0.2-1.2,0.5v3.9c0,0.5,0,0.8,0.1,0.9c0.1,0.1,0.3,0.2,0.7,0.2v0.5h-4v-0.5
	c0.5-0.1,0.8-0.2,0.9-0.3c0.1-0.1,0.2-0.5,0.2-1V58c0-0.5,0-0.8-0.1-0.9c-0.1-0.1-0.3-0.2-0.7-0.3v-0.5c1-0.2,2-0.4,3-0.6v1.2
	c0.3-0.2,0.7-0.5,1-0.7c0.3-0.2,0.5-0.3,0.7-0.3c0.2-0.1,0.4-0.1,0.6-0.1c0.7,0,1.2,0.2,1.6,0.7c0.4,0.5,0.6,1.1,0.6,1.9v3
	c0,0.5,0.1,0.8,0.2,0.9c0.1,0.1,0.4,0.2,0.8,0.2L122.8,63.1L122.8,63.1z"/>
<path class="st1" d="M128.6,62.5l-1.3,0.6c-0.3,0.1-0.5,0.2-0.6,0.2c-1.4,0-2-0.7-2-2v-4.5h-1l-0.1-0.2l0.5-0.6h0.7v-1.2l1.9-1.3
	l0.2,0.1V56h1.6c0.1,0.1,0.1,0.2,0.1,0.3c0,0.2-0.1,0.4-0.2,0.5h-1.5v4c0,0.9,0.3,1.4,0.9,1.4c0.2,0,0.5-0.1,0.8-0.2L128.6,62.5
	L128.6,62.5z"/>
<path class="st1" d="M137.9,62.2v0.5c-0.5,0.1-1,0.2-1.4,0.2c-0.5,0.1-1,0.2-1.6,0.3l-0.1-0.1v-1c-0.4,0.3-0.6,0.5-0.8,0.6
	c-0.5,0.3-1,0.5-1.4,0.5c-0.7,0-1.2-0.2-1.6-0.6c-0.4-0.4-0.6-1-0.6-1.7v-3.2c0-0.4,0-0.6-0.1-0.7c-0.1-0.1-0.2-0.2-0.4-0.3
	l-0.4-0.1v-0.5c0.5,0,0.9-0.1,1.4-0.1c0.6,0,1.1-0.1,1.6-0.2c0,0.4,0,1.2,0,2.4v2.4c0,0.5,0.1,0.9,0.3,1.1c0.2,0.2,0.5,0.3,0.8,0.3
	c0.5,0,0.9-0.2,1.2-0.5v-3.9c0-0.4,0-0.6-0.1-0.7c-0.1-0.1-0.2-0.2-0.4-0.2l-0.5-0.1v-0.5c0.6,0,1.1-0.1,1.7-0.1
	c0.6,0,1.1-0.1,1.5-0.2v5.2c0,0.4,0,0.7,0.1,0.8c0.1,0.1,0.3,0.2,0.6,0.2L137.9,62.2L137.9,62.2z"/>
<path class="st1" d="M142,57.5L142,57.5c0.4-0.5,0.7-0.9,1-1.2c0.3-0.3,0.6-0.5,0.9-0.5c0.3,0,0.6,0.1,0.8,0.3
	c0.2,0.2,0.3,0.4,0.3,0.7c0,0.3-0.1,0.5-0.2,0.8c-0.1,0.2-0.3,0.4-0.6,0.4c-0.1,0-0.1,0-0.2,0c-0.1,0-0.2,0-0.3-0.1
	c-0.3-0.2-0.5-0.3-0.8-0.3c-0.4,0-0.7,0.3-1,0.9v3c0,0.4,0,0.6,0.1,0.7c0.1,0.1,0.2,0.2,0.3,0.3c0.2,0,0.5,0.1,1,0.1v0.5h-4.5v-0.5
	c0.5-0.1,0.8-0.2,0.9-0.3s0.2-0.4,0.2-0.9v-3.5c0-0.4-0.1-0.6-0.2-0.7c-0.1-0.1-0.3-0.2-0.7-0.3v-0.5c1-0.1,2-0.3,3-0.6L142,57.5
	L142,57.5z"/>
<path class="st1" d="M153.7,56v0.5c-0.4,0.1-0.7,0.2-0.8,0.3c-0.1,0.1-0.3,0.4-0.5,0.9c-0.4,0.8-1,2.3-1.9,4.5
	c-0.8,1.9-1.4,3.4-1.8,4.6c-0.1,0.3-0.3,0.4-0.6,0.4c-0.3,0-0.5-0.1-0.8-0.3c-0.3-0.2-0.4-0.5-0.4-0.7c0-0.3,0.2-0.5,0.5-0.6
	c0.6-0.3,1.1-0.7,1.4-1.2c0.1-0.2,0.2-0.4,0.3-0.6c0-0.1,0-0.2,0-0.3c0-0.2,0-0.3-0.1-0.5c-1-2.6-1.6-4.4-2-5.3
	c-0.1-0.3-0.3-0.6-0.5-0.7c-0.2-0.1-0.4-0.2-0.8-0.3V56h4.1v0.5c-0.3,0.1-0.5,0.1-0.6,0.2c-0.1,0.1-0.1,0.1-0.1,0.2
	c0,0.1,0,0.2,0,0.3l1.3,3.6c0.2-0.5,0.7-1.7,1.2-3.4c0-0.1,0.1-0.2,0.1-0.3c0-0.3-0.3-0.5-0.8-0.6V56L153.7,56L153.7,56z"/>
<path class="st1" d="M171.4,63.1h-4.9v-0.6c0.6,0,0.9-0.1,1.1-0.3c0.2-0.2,0.2-0.6,0.2-1.2v-0.3l0-6.2h-0.1l-3.7,8.4h-0.5l-3.4-8.3
	H160l-0.2,4.3c0,0.5,0,1,0,1.4c0,0.5,0,0.9,0.1,1.2c0,0.3,0.2,0.6,0.3,0.7c0.2,0.1,0.6,0.2,1.2,0.2v0.6h-4v-0.6c0.5,0,0.8-0.1,1-0.3
	c0.2-0.2,0.3-0.4,0.4-0.7c0.1-0.7,0.2-1.7,0.3-3.1l0.2-3.1c0-0.4,0-0.7,0-0.9c0-0.5-0.1-0.8-0.3-1c-0.2-0.2-0.6-0.3-1.2-0.3v-0.6
	h3.4l3.2,7.1l3.3-7.1h3.3v0.6c-0.6,0.1-1,0.2-1.2,0.3c-0.2,0.1-0.2,0.5-0.2,1v0.3l0.2,6c0,0.7,0.1,1.2,0.2,1.4
	c0.2,0.2,0.6,0.3,1.2,0.4L171.4,63.1L171.4,63.1z"/>
<path class="st1" d="M178.4,61.1l0.3,0.4c-0.5,0.7-1,1.1-1.5,1.4c-0.5,0.3-1,0.4-1.5,0.4c-1.1,0-1.9-0.3-2.5-1
	c-0.6-0.7-0.9-1.5-0.9-2.5c0-0.6,0.1-1.1,0.3-1.6c0.2-0.5,0.5-0.9,0.9-1.3c0.8-0.8,1.7-1.2,2.5-1.2h0c0.7,0,1.4,0.3,1.9,0.8
	c0.5,0.5,0.8,1.1,0.8,1.8c0,0.4-0.2,0.5-0.5,0.6c-0.7,0.1-2,0.2-3.9,0.3c0,0.8,0.3,1.5,0.7,1.9c0.4,0.4,0.9,0.7,1.5,0.7
	C177.2,61.8,177.8,61.5,178.4,61.1L178.4,61.1z M175.7,56.4L175.7,56.4c-0.3,0-0.6,0.2-0.9,0.5c-0.2,0.4-0.4,0.8-0.5,1.5
	c0.4,0,1.1,0,2,0c0.2,0,0.4-0.1,0.3-0.3V58c0-0.4-0.1-0.8-0.3-1.1C176.2,56.6,176,56.4,175.7,56.4L175.7,56.4z"/>
<path class="st1" d="M188.2,62.2v0.5c-0.2,0-0.7,0.1-1.4,0.2c-0.7,0.1-1.3,0.2-1.9,0.4v-1l-1,0.7c-0.3,0.2-0.6,0.3-0.8,0.3
	c-0.5,0-1-0.1-1.5-0.4c-0.5-0.3-1-0.7-1.3-1.2c-0.3-0.5-0.5-1.2-0.5-2c0-1.1,0.4-2,1.3-2.8c0.9-0.8,2-1.2,3.2-1.2
	c0.1,0,0.4,0,0.7,0.1v-2c0-0.4-0.1-0.7-0.2-0.8c-0.1-0.1-0.4-0.2-0.9-0.3v-0.5c1.3-0.1,2.4-0.3,3.2-0.6V61c0,0.5,0,0.8,0.1,0.9
	c0.1,0.1,0.3,0.2,0.7,0.2L188.2,62.2L188.2,62.2z M184.9,61.8v-4.5c-0.3-0.5-0.7-0.8-1.2-0.8c-0.2,0-0.4,0.1-0.7,0.2
	c-0.3,0.2-0.5,0.4-0.7,0.9c-0.2,0.4-0.3,1-0.3,1.7c0,0.9,0.2,1.6,0.6,2.1c0.4,0.5,0.9,0.7,1.3,0.7C184.3,62,184.6,62,184.9,61.8
	L184.9,61.8z"/>
<path class="st1" d="M191.2,54.7c-0.3,0-0.6-0.1-0.8-0.3c-0.2-0.2-0.3-0.5-0.3-0.8c0-0.3,0.1-0.6,0.3-0.8c0.2-0.2,0.5-0.3,0.8-0.3
	c0.3,0,0.6,0.1,0.8,0.3c0.2,0.2,0.3,0.5,0.3,0.8c0,0.3-0.1,0.6-0.3,0.8C191.8,54.6,191.6,54.7,191.2,54.7z M193.5,63.1h-4.2v-0.5
	c0.5,0,0.8-0.1,0.9-0.3c0.1-0.2,0.2-0.5,0.2-1.1v-3.1c0-0.5-0.1-0.9-0.2-1c-0.1-0.1-0.3-0.2-0.7-0.3v-0.5c1.1-0.1,2.1-0.3,3-0.6v5.5
	c0,0.4,0,0.7,0.1,0.9c0,0.2,0.1,0.3,0.3,0.3c0.1,0.1,0.4,0.1,0.7,0.2L193.5,63.1L193.5,63.1z"/>
<path class="st1" d="M204.1,60l0.6,0.2c-0.3,1-0.6,1.9-1,2.7c-1.4,0.3-2.5,0.4-3.2,0.4c-1.4,0-2.6-0.3-3.6-0.8c-1-0.5-1.7-1.2-2.1-2
	c-0.5-0.8-0.7-1.7-0.7-2.6c0-1.7,0.6-3,1.8-4.1c1.2-1,2.9-1.6,4.9-1.6c0.6,0,1.1,0,1.5,0.1c0.4,0.1,1,0.2,1.6,0.3
	c0.2,1.3,0.3,2.2,0.4,2.7l-0.6,0.1c-0.2-0.9-0.7-1.6-1.2-1.9c-0.6-0.4-1.2-0.6-2-0.6c-1.2,0-2.2,0.4-2.8,1.3c-0.7,0.9-1,2-1,3.2
	c0,1.5,0.4,2.7,1.1,3.6s1.7,1.4,2.9,1.4c0.7,0,1.3-0.2,1.9-0.6S203.7,60.9,204.1,60L204.1,60z"/>
<path class="st1" d="M213,62.3l-1.8,0.9c-0.4,0-0.7-0.1-1-0.3c-0.2-0.2-0.3-0.4-0.4-0.6c-0.8,0.5-1.2,0.8-1.4,0.8
	c-0.1,0.1-0.2,0.1-0.4,0.1c-0.7,0-1.2-0.2-1.6-0.6c-0.4-0.4-0.6-0.9-0.6-1.4c0-0.4,0.1-0.7,0.3-1c0.2-0.2,0.5-0.4,1-0.6
	c1-0.4,1.7-0.6,2-0.7c0.3-0.1,0.5-0.2,0.7-0.4v-0.4c0-0.5-0.1-0.9-0.3-1.2c-0.2-0.3-0.4-0.4-0.7-0.4c-0.2,0-0.4,0.1-0.5,0.3
	c-0.2,0.2-0.3,0.6-0.5,1.1c-0.1,0.4-0.3,0.5-0.7,0.5c-0.2,0-0.4-0.1-0.7-0.2c-0.2-0.2-0.3-0.4-0.3-0.6c0-0.2,0-0.3,0.1-0.4
	c0.1-0.1,0.2-0.2,0.5-0.4c0.8-0.5,1.7-0.9,2.7-1.2c0.6,0,1.2,0.1,1.6,0.4c0.3,0.3,0.6,0.6,0.7,0.9c0.1,0.4,0.2,0.8,0.2,1.3V61
	c0,0.6,0.2,1,0.5,1c0.1,0,0.3,0,0.6-0.1L213,62.3L213,62.3z M209.7,61.8v-2.6c-0.4,0.3-0.7,0.4-0.9,0.5c-0.3,0.1-0.5,0.3-0.6,0.5
	c-0.1,0.2-0.2,0.4-0.2,0.6c0,0.4,0.1,0.7,0.3,1c0.2,0.2,0.4,0.3,0.7,0.3C209.2,62.1,209.4,62,209.7,61.8z"/>
<path class="st1" d="M217,57.5L217,57.5c0.3-0.5,0.7-0.9,1-1.2c0.3-0.3,0.6-0.5,0.9-0.5c0.3,0,0.6,0.1,0.8,0.3
	c0.2,0.2,0.3,0.4,0.3,0.7c0,0.3-0.1,0.5-0.2,0.8c-0.2,0.2-0.3,0.4-0.6,0.4c-0.1,0-0.1,0-0.2,0c-0.1,0-0.2,0-0.3-0.1
	c-0.3-0.2-0.5-0.3-0.8-0.3c-0.4,0-0.7,0.3-1,0.9v3c0,0.4,0,0.6,0.1,0.7c0.1,0.1,0.2,0.2,0.3,0.3c0.2,0,0.5,0.1,1,0.1v0.5h-4.5v-0.5
	c0.5-0.1,0.8-0.2,0.9-0.3s0.2-0.4,0.2-0.9v-3.5c0-0.4-0.1-0.6-0.2-0.7c-0.1-0.1-0.3-0.2-0.7-0.3v-0.5c1-0.1,2-0.3,3-0.6L217,57.5
	L217,57.5z"/>
<path class="st1" d="M227,61.1l0.3,0.4c-0.5,0.7-1,1.1-1.5,1.4s-1,0.4-1.5,0.4c-1.1,0-1.9-0.3-2.5-1c-0.6-0.7-0.9-1.5-0.9-2.5
	c0-0.6,0.1-1.1,0.3-1.6c0.2-0.5,0.5-0.9,0.9-1.3c0.8-0.8,1.7-1.2,2.5-1.2h0c0.7,0,1.4,0.3,1.9,0.8c0.5,0.5,0.8,1.1,0.8,1.8
	c0,0.4-0.2,0.5-0.5,0.6c-0.7,0.1-2,0.2-3.9,0.3c0,0.8,0.3,1.5,0.7,1.9c0.4,0.4,0.9,0.7,1.5,0.7C225.8,61.8,226.4,61.5,227,61.1
	L227,61.1z M224.3,56.4L224.3,56.4c-0.3,0-0.6,0.2-0.9,0.5c-0.2,0.4-0.4,0.8-0.5,1.5c0.4,0,1.1,0,2,0c0.2,0,0.4-0.1,0.3-0.3V58
	c0-0.4-0.1-0.8-0.3-1.1C224.8,56.6,224.6,56.4,224.3,56.4L224.3,56.4z"/>
<path class="st2" d="M99.6,72.2c0.1,0,0.2,0,0.3,0.1c0.1,0,0.2,0,0.3,0c0.2,0,0.4,0,0.6-0.1c0.2-0.1,0.4-0.2,0.5-0.3
	c0.1-0.1,0.3-0.3,0.3-0.5c0.1-0.2,0.1-0.4,0.1-0.7c0-0.3,0-0.5-0.1-0.7s-0.2-0.3-0.3-0.5c-0.1-0.1-0.3-0.2-0.5-0.3
	c-0.2-0.1-0.4-0.1-0.6-0.1c-0.1,0-0.2,0-0.3,0c-0.1,0-0.2,0-0.3,0.1V72.2L99.6,72.2z M99.6,74.1c0,0.1,0,0.3,0,0.4
	c0,0.1,0.1,0.2,0.2,0.2c0.1,0.1,0.2,0.1,0.4,0.1c0.2,0,0.4,0,0.6,0v0.4h-3.5v-0.4c0.2,0,0.3,0,0.4,0c0.1,0,0.2-0.1,0.3-0.1
	c0.1,0,0.1-0.1,0.1-0.2c0-0.1,0-0.2,0-0.3v-4.3c0-0.1,0-0.2-0.1-0.3c0-0.1-0.1-0.1-0.2-0.2c-0.1,0-0.2-0.1-0.3-0.1
	c-0.1,0-0.3,0-0.4,0v-0.4c0.2,0,0.4,0,0.6-0.1c0.2,0,0.4,0,0.6,0c0.2,0,0.4,0,0.6,0c0.2,0,0.4,0,0.6,0c0.2,0,0.3,0,0.5,0
	c0.1,0,0.2,0,0.3,0c0.2,0,0.5,0,0.7,0.1c0.2,0,0.4,0.1,0.6,0.1c0.2,0.1,0.4,0.1,0.6,0.2c0.2,0.1,0.3,0.2,0.5,0.4
	c0.1,0.1,0.2,0.3,0.3,0.5c0.1,0.2,0.1,0.4,0.1,0.6c0,0.3-0.1,0.6-0.2,0.8c-0.1,0.2-0.3,0.4-0.6,0.6s-0.5,0.3-0.9,0.4
	c-0.3,0.1-0.7,0.1-1,0.1c-0.2,0-0.3,0-0.5,0c-0.2,0-0.4-0.1-0.5-0.1L99.6,74.1L99.6,74.1z"/>
<path class="st2" d="M108.6,72.6c0,0.3,0,0.6,0.1,0.9c0.1,0.3,0.2,0.5,0.3,0.7c0.1,0.2,0.3,0.4,0.4,0.5c0.2,0.1,0.3,0.2,0.5,0.2
	c0.6,0,0.9-0.4,0.9-1.3c0-0.3,0-0.6-0.1-0.9c-0.1-0.3-0.2-0.5-0.3-0.7c-0.1-0.2-0.3-0.4-0.4-0.5c-0.2-0.1-0.3-0.2-0.5-0.2
	C108.9,71.4,108.6,71.8,108.6,72.6L108.6,72.6z M107.3,73.2c0-0.3,0.1-0.6,0.2-0.9c0.1-0.3,0.3-0.5,0.5-0.7c0.2-0.2,0.5-0.4,0.8-0.5
	c0.3-0.1,0.7-0.2,1-0.2c0.3,0,0.7,0.1,0.9,0.2c0.3,0.1,0.5,0.2,0.8,0.4c0.2,0.2,0.4,0.4,0.5,0.7c0.1,0.3,0.2,0.5,0.2,0.8
	c0,0.3-0.1,0.6-0.2,0.9c-0.1,0.3-0.3,0.5-0.5,0.7c-0.2,0.2-0.5,0.4-0.8,0.5c-0.3,0.1-0.6,0.2-1,0.2c-0.3,0-0.6,0-0.9-0.1
	c-0.3-0.1-0.5-0.2-0.8-0.4c-0.2-0.2-0.4-0.4-0.5-0.7C107.4,73.8,107.3,73.5,107.3,73.2z"/>
<path class="st2" d="M117.9,68.5v5.7c0,0.2,0.1,0.4,0.2,0.5c0.1,0.1,0.3,0.2,0.5,0.2v0.3H116v-0.3h0.1c0.2,0,0.4-0.1,0.4-0.2
	c0.1-0.1,0.1-0.3,0.1-0.5V70c0-0.2,0-0.3,0-0.4c0-0.1,0-0.1-0.1-0.1s-0.1-0.1-0.2-0.1c-0.1,0-0.1-0.1-0.2-0.1
	c-0.1,0-0.2-0.1-0.2-0.1V69c0,0,0.1,0,0.2-0.1c0.1,0,0.2-0.1,0.3-0.1c0.1,0,0.2-0.1,0.4-0.1c0.1,0,0.3-0.1,0.4-0.1
	c0.1,0,0.2-0.1,0.3-0.1c0.1,0,0.2,0,0.2-0.1L117.9,68.5L117.9,68.5z"/>
<path class="st2" d="M124.2,75.1c0,0,0-0.1-0.1-0.2c0-0.1-0.1-0.2-0.2-0.3c-0.1-0.1-0.1-0.3-0.2-0.4c-0.1-0.2-0.2-0.3-0.2-0.5
	s-0.2-0.3-0.2-0.5c-0.1-0.2-0.1-0.3-0.2-0.4c-0.1-0.1-0.1-0.2-0.2-0.3s-0.1-0.1-0.1-0.1c-0.1-0.1-0.1-0.3-0.2-0.4
	c-0.1-0.1-0.1-0.2-0.1-0.2c-0.1-0.1-0.2-0.2-0.3-0.2c-0.1-0.1-0.2-0.1-0.3-0.1v-0.3h2.6v0.3c-0.2,0-0.3,0-0.4,0.1
	c-0.1,0-0.1,0.1-0.1,0.2c0,0.1,0,0.1,0,0.2c0,0.1,0.1,0.2,0.1,0.3c0.1,0.1,0.1,0.2,0.2,0.3c0.1,0.1,0.1,0.2,0.2,0.3
	c0.1,0.2,0.1,0.3,0.2,0.5c0.1,0.2,0.1,0.3,0.2,0.4c0,0,0.1-0.1,0.1-0.2c0-0.1,0.1-0.2,0.1-0.3c0.1-0.1,0.1-0.2,0.2-0.3
	c0.1-0.1,0.1-0.2,0.2-0.3c0.1-0.1,0.1-0.2,0.1-0.3c0-0.1,0.1-0.1,0.1-0.2c0.1-0.1,0.1-0.3,0.1-0.4c0-0.1-0.1-0.2-0.2-0.3
	c-0.1-0.1-0.3-0.1-0.5-0.1v-0.3h1.9v0.3c-0.1,0-0.2,0.1-0.3,0.1c-0.1,0-0.1,0.1-0.2,0.1c-0.1,0.1-0.1,0.1-0.2,0.2
	c-0.1,0.1-0.1,0.2-0.2,0.3c0,0-0.1,0.1-0.1,0.2c-0.1,0.1-0.2,0.3-0.3,0.5c-0.1,0.2-0.2,0.5-0.4,0.7c-0.1,0.3-0.3,0.5-0.4,0.8
	c-0.1,0.3-0.3,0.5-0.4,0.8c-0.1,0.3-0.2,0.5-0.4,0.7c-0.1,0.2-0.2,0.4-0.3,0.5c-0.1,0.1-0.1,0.2-0.1,0.2c-0.1,0.2-0.3,0.4-0.4,0.5
	c-0.2,0.1-0.3,0.2-0.5,0.2c-0.1,0-0.2,0-0.3,0c-0.1,0-0.1-0.1-0.2-0.1c-0.1-0.1-0.1-0.1-0.1-0.2c0-0.1,0-0.1,0-0.2
	c0-0.2,0-0.3,0.1-0.4c0.1-0.1,0.2-0.2,0.4-0.2c0,0,0,0,0.1,0c0,0,0,0,0,0c0.1,0,0.2,0,0.3-0.1c0.1,0,0.2-0.1,0.3-0.1
	c0.1,0,0.2-0.1,0.3-0.2c0.1-0.1,0.2-0.2,0.2-0.4L124.2,75.1L124.2,75.1z"/>
<path class="st2" d="M142.9,73.4c0,0.3-0.1,0.6-0.2,0.9c-0.1,0.3-0.2,0.6-0.4,0.9c-0.2,0-0.4-0.1-0.6-0.1c0,0-0.1,0-0.2,0
	c-0.1,0-0.2,0-0.3,0s-0.2,0-0.3,0c-0.1,0-0.2,0-0.4,0.1c-0.1,0-0.2,0-0.3,0c-0.1,0-0.2,0-0.3,0c-0.3,0-0.6,0-0.9-0.1
	c-0.3-0.1-0.6-0.2-0.9-0.3c-0.3-0.1-0.5-0.3-0.8-0.5c-0.2-0.2-0.4-0.4-0.6-0.7c-0.2-0.2-0.3-0.5-0.4-0.8c-0.1-0.3-0.1-0.6-0.1-0.9
	c0-0.9,0.4-1.7,1.1-2.4c0.4-0.3,0.8-0.6,1.2-0.7c0.5-0.2,1-0.2,1.5-0.2c0.2,0,0.3,0,0.5,0c0.2,0,0.3,0,0.5,0.1
	c0.1,0,0.3,0.1,0.4,0.1c0.1,0,0.2,0.1,0.3,0.1c0.1,0,0.1,0.1,0.2,0.1c0,0,0.1,0,0.1,0c0.1,0,0.1,0,0.2-0.1h0.3c0,0,0,0.1,0,0.2
	c0,0.1,0,0.2,0,0.3c0,0.1,0,0.2,0,0.4c0,0.1,0,0.3,0,0.4c0,0.1,0,0.2,0,0.3c0,0.1,0,0.2,0,0.2h-0.4c-0.1-0.3-0.3-0.6-0.5-0.8
	c-0.2-0.2-0.4-0.4-0.7-0.5c-0.1-0.1-0.3-0.1-0.4-0.1c-0.1,0-0.3-0.1-0.5-0.1c-0.7,0-1.3,0.2-1.8,0.7c-0.4,0.5-0.7,1.2-0.7,1.9
	c0,0.3,0,0.5,0.1,0.7c0.1,0.2,0.1,0.5,0.2,0.7c0.1,0.2,0.2,0.4,0.4,0.6c0.2,0.2,0.3,0.3,0.5,0.5c0.2,0.1,0.4,0.2,0.6,0.3
	c0.2,0.1,0.4,0.1,0.7,0.1c0.2,0,0.5,0,0.7-0.1c0.2-0.1,0.4-0.2,0.6-0.3c0.2-0.1,0.3-0.3,0.5-0.5c0.1-0.2,0.3-0.4,0.4-0.6L142.9,73.4
	L142.9,73.4z"/>
<path class="st2" d="M148.5,68.5v5.7c0,0.2,0.1,0.4,0.2,0.5c0.1,0.1,0.3,0.2,0.5,0.2v0.3h-2.5v-0.3h0.1c0.2,0,0.4-0.1,0.4-0.2
	c0.1-0.1,0.1-0.3,0.1-0.5V70c0-0.2,0-0.3,0-0.4c0-0.1,0-0.1-0.1-0.1s-0.1-0.1-0.2-0.1c-0.1,0-0.1-0.1-0.2-0.1
	c-0.1,0-0.2-0.1-0.2-0.1V69c0,0,0.1,0,0.2-0.1c0.1,0,0.2-0.1,0.3-0.1c0.1,0,0.2-0.1,0.4-0.1c0.1,0,0.3-0.1,0.4-0.1
	c0.1,0,0.2-0.1,0.3-0.1c0.1,0,0.2,0,0.2-0.1L148.5,68.5L148.5,68.5z"/>
<path class="st2" d="M153.9,68.6c0.1,0,0.2,0,0.3,0.1c0.1,0,0.2,0.1,0.2,0.1c0.1,0.1,0.1,0.1,0.2,0.2c0,0.1,0.1,0.2,0.1,0.3
	s0,0.2-0.1,0.3s-0.1,0.2-0.2,0.2c-0.1,0.1-0.2,0.1-0.3,0.1c-0.1,0-0.2,0.1-0.3,0.1c-0.1,0-0.2,0-0.3-0.1c-0.1,0-0.2-0.1-0.3-0.1
	c-0.1-0.1-0.1-0.1-0.2-0.2c0-0.1-0.1-0.2-0.1-0.3c0-0.1,0-0.2,0.1-0.3c0-0.1,0.1-0.2,0.2-0.2c0.1-0.1,0.2-0.1,0.3-0.2
	C153.7,68.6,153.8,68.6,153.9,68.6L153.9,68.6z M155.2,75.2h-2.5v-0.3h0.1c0.2,0,0.4-0.1,0.4-0.2c0.1-0.1,0.1-0.3,0.1-0.5v-1.9
	c0-0.1,0-0.1,0-0.2c0-0.1-0.1-0.1-0.1-0.1c0,0-0.1-0.1-0.2-0.1c-0.1,0-0.2-0.1-0.3-0.1v-0.2c0.3-0.1,0.6-0.2,0.9-0.3
	c0.3-0.1,0.6-0.2,0.9-0.3h0.2v3.4c0,0.2,0.1,0.4,0.2,0.5c0.1,0.1,0.3,0.2,0.5,0.2L155.2,75.2L155.2,75.2z"/>
<path class="st2" d="M163.8,74.3c0,0.1,0,0.2,0,0.3c0,0.1,0.1,0.1,0.1,0.2c0,0,0.1,0.1,0.2,0.1c0.1,0,0.2,0,0.3,0v0.3h-2.4v-0.3
	c0.1,0,0.2,0,0.3-0.1c0.1,0,0.1-0.1,0.2-0.2c0-0.1,0.1-0.2,0.1-0.3c0-0.1,0-0.3,0-0.5v-0.9c0-0.7-0.2-1.1-0.6-1.1
	c-0.1,0-0.3,0-0.5,0.1c-0.2,0.1-0.4,0.2-0.6,0.3v2c0,0.4,0.2,0.6,0.6,0.6h0.1v0.3h-2.6v-0.3h0.1c0.2,0,0.4-0.1,0.4-0.2
	c0.1-0.1,0.1-0.3,0.1-0.5v-2c0-0.1,0-0.2-0.1-0.3c-0.1-0.1-0.2-0.1-0.4-0.2c0,0,0,0,0,0c0,0,0,0,0,0c0,0,0,0-0.1,0c0,0,0,0-0.1,0
	v-0.2c0,0,0.1,0,0.2-0.1c0.1,0,0.2-0.1,0.3-0.1c0.1,0,0.2-0.1,0.4-0.1c0.1,0,0.3-0.1,0.4-0.1c0.1,0,0.2-0.1,0.3-0.1
	c0.1,0,0.1-0.1,0.2-0.1h0.2v0.9c0.4-0.3,0.7-0.5,1.1-0.6c0.3-0.1,0.6-0.2,0.8-0.2c0.4,0,0.7,0.1,0.8,0.4c0.2,0.3,0.2,0.7,0.2,1.3
	L163.8,74.3L163.8,74.3z"/>
<path class="st2" d="M169.2,68.6c0.1,0,0.2,0,0.3,0.1c0.1,0,0.2,0.1,0.2,0.1c0.1,0.1,0.1,0.1,0.2,0.2c0,0.1,0.1,0.2,0.1,0.3
	s0,0.2-0.1,0.3s-0.1,0.2-0.2,0.2c-0.1,0.1-0.2,0.1-0.3,0.1c-0.1,0-0.2,0.1-0.3,0.1c-0.1,0-0.2,0-0.3-0.1c-0.1,0-0.2-0.1-0.3-0.1
	c-0.1-0.1-0.1-0.1-0.2-0.2c0-0.1-0.1-0.2-0.1-0.3c0-0.1,0-0.2,0.1-0.3c0-0.1,0.1-0.2,0.2-0.2c0.1-0.1,0.2-0.1,0.3-0.2
	C169,68.6,169.1,68.6,169.2,68.6L169.2,68.6z M170.5,75.2h-2.5v-0.3h0.1c0.2,0,0.4-0.1,0.4-0.2c0.1-0.1,0.1-0.3,0.1-0.5v-1.9
	c0-0.1,0-0.1,0-0.2c0-0.1-0.1-0.1-0.1-0.1c0,0-0.1-0.1-0.2-0.1c-0.1,0-0.2-0.1-0.3-0.1v-0.2c0.3-0.1,0.6-0.2,0.9-0.3
	c0.3-0.1,0.6-0.2,0.9-0.3h0.2v3.4c0,0.2,0.1,0.4,0.2,0.5c0.1,0.1,0.3,0.2,0.5,0.2L170.5,75.2L170.5,75.2z"/>
<path class="st2" d="M178.6,74.2c-0.2,0.4-0.5,0.6-0.9,0.8s-0.7,0.3-1.2,0.3c-0.9,0-1.5-0.3-1.9-1c-0.1-0.2-0.2-0.3-0.2-0.5
	c0-0.2-0.1-0.4-0.1-0.6c0-0.4,0.1-0.8,0.3-1.2c0.1-0.2,0.3-0.3,0.4-0.5c0.2-0.1,0.3-0.3,0.5-0.4c0.4-0.2,0.8-0.3,1.3-0.3
	c0.2,0,0.4,0,0.6,0.1c0.2,0,0.3,0.1,0.5,0.2c0.1,0.1,0.2,0.2,0.3,0.3c0.1,0.1,0.1,0.2,0.1,0.4c0,0.3-0.2,0.5-0.5,0.5
	c-0.3,0-0.5-0.1-0.8-0.5c-0.3-0.3-0.5-0.4-0.7-0.4c-0.1,0-0.2,0-0.4,0.1c-0.1,0.1-0.2,0.2-0.3,0.3c-0.1,0.1-0.1,0.3-0.2,0.5
	c0,0.2-0.1,0.4-0.1,0.6c0,0.3,0,0.5,0.1,0.7c0.1,0.2,0.1,0.4,0.3,0.6c0.1,0.2,0.2,0.3,0.4,0.4c0.2,0.1,0.3,0.1,0.5,0.1
	c0.2,0,0.4-0.1,0.7-0.2c0.2-0.1,0.4-0.3,0.6-0.5L178.6,74.2L178.6,74.2z"/>
<path class="st2" d="M193.9,73.5c0,0,0,0.1-0.1,0.2c0,0.1-0.1,0.2-0.1,0.3c0,0.1-0.1,0.2-0.2,0.4c-0.1,0.1-0.1,0.3-0.2,0.4
	c0,0.1-0.1,0.2-0.1,0.3c0,0.1-0.1,0.2-0.1,0.2h-5.4v-0.4h0.2c0.2,0,0.3,0,0.4,0c0.1,0,0.2-0.1,0.3-0.1c0.1-0.1,0.1-0.1,0.1-0.2
	c0-0.1,0-0.2,0-0.3v-4c0-0.5-0.3-0.7-0.8-0.7h-0.2v-0.4h3.4v0.4h-0.3c-0.5,0-0.7,0.2-0.7,0.7v4.2c0,0.1,0,0.2,0,0.2
	c0,0.1,0,0.1,0.1,0.1c0,0,0.1,0.1,0.2,0.1c0.1,0,0.1,0,0.2,0h1.3c0.2,0,0.3,0,0.5-0.1c0.2-0.1,0.3-0.2,0.4-0.3
	c0.1-0.1,0.1-0.2,0.3-0.3c0.1-0.1,0.2-0.3,0.4-0.5L193.9,73.5L193.9,73.5z"/>
<path class="st2" d="M198.7,74.2c0,0.1,0,0.2-0.1,0.3c0,0.1-0.1,0.1-0.1,0.2c-0.1,0.1-0.1,0.1-0.2,0.1c-0.1,0-0.2,0-0.3,0
	c-0.1,0-0.2,0-0.3,0c-0.1,0-0.1-0.1-0.2-0.1c-0.1-0.1-0.1-0.1-0.1-0.2c0-0.1-0.1-0.2-0.1-0.3c0-0.1,0-0.2,0.1-0.3
	c0-0.1,0.1-0.1,0.1-0.2c0.1-0.1,0.1-0.1,0.2-0.1c0.1,0,0.2-0.1,0.3-0.1c0.1,0,0.2,0,0.3,0.1c0.1,0,0.1,0.1,0.2,0.1
	c0.1,0.1,0.1,0.1,0.1,0.2C198.7,74,198.7,74.1,198.7,74.2L198.7,74.2z"/>
<path class="st2" d="M209.4,73.5c0,0,0,0.1-0.1,0.2c0,0.1-0.1,0.2-0.1,0.3c0,0.1-0.1,0.2-0.2,0.4c-0.1,0.1-0.1,0.3-0.2,0.4
	c0,0.1-0.1,0.2-0.1,0.3c0,0.1-0.1,0.2-0.1,0.2h-5.4v-0.4h0.2c0.2,0,0.3,0,0.4,0c0.1,0,0.2-0.1,0.3-0.1c0.1-0.1,0.1-0.1,0.1-0.2
	c0-0.1,0-0.2,0-0.3v-4c0-0.5-0.3-0.7-0.8-0.7h-0.2v-0.4h3.4v0.4h-0.3c-0.5,0-0.7,0.2-0.7,0.7v4.2c0,0.1,0,0.2,0,0.2
	c0,0.1,0,0.1,0.1,0.1c0,0,0.1,0.1,0.2,0.1c0.1,0,0.1,0,0.2,0h1.3c0.2,0,0.3,0,0.5-0.1c0.2-0.1,0.3-0.2,0.4-0.3
	c0.1-0.1,0.1-0.2,0.3-0.3c0.1-0.1,0.2-0.3,0.4-0.5L209.4,73.5L209.4,73.5z"/>
<path class="st2" d="M214.3,74.2c0,0.1,0,0.2-0.1,0.3c0,0.1-0.1,0.1-0.1,0.2c-0.1,0.1-0.1,0.1-0.2,0.1c-0.1,0-0.2,0-0.3,0
	c-0.1,0-0.2,0-0.3,0c-0.1,0-0.1-0.1-0.2-0.1c-0.1-0.1-0.1-0.1-0.1-0.2c0-0.1-0.1-0.2-0.1-0.3c0-0.1,0-0.2,0.1-0.3
	c0-0.1,0.1-0.1,0.1-0.2c0.1-0.1,0.1-0.1,0.2-0.1c0.1,0,0.2-0.1,0.3-0.1c0.1,0,0.2,0,0.3,0.1c0.1,0,0.1,0.1,0.2,0.1
	c0.1,0.1,0.1,0.1,0.1,0.2C214.3,74,214.3,74.1,214.3,74.2L214.3,74.2z"/>
<path class="st2" d="M225.8,73.4c0,0.3-0.1,0.6-0.2,0.9c-0.1,0.3-0.2,0.6-0.4,0.9c-0.2,0-0.4-0.1-0.6-0.1c0,0-0.1,0-0.2,0
	c-0.1,0-0.2,0-0.3,0s-0.2,0-0.3,0c-0.1,0-0.2,0-0.4,0.1c-0.1,0-0.2,0-0.3,0c-0.1,0-0.2,0-0.3,0c-0.3,0-0.6,0-0.9-0.1
	c-0.3-0.1-0.6-0.2-0.9-0.3c-0.3-0.1-0.5-0.3-0.8-0.5c-0.2-0.2-0.4-0.4-0.6-0.7c-0.2-0.2-0.3-0.5-0.4-0.8c-0.1-0.3-0.1-0.6-0.1-0.9
	c0-0.9,0.4-1.7,1.1-2.4c0.4-0.3,0.8-0.6,1.2-0.7c0.5-0.2,1-0.2,1.5-0.2c0.2,0,0.3,0,0.5,0c0.2,0,0.3,0,0.5,0.1
	c0.1,0,0.3,0.1,0.4,0.1c0.1,0,0.2,0.1,0.3,0.1c0.1,0,0.1,0.1,0.2,0.1c0,0,0.1,0,0.1,0c0.1,0,0.1,0,0.2-0.1h0.3c0,0,0,0.1,0,0.2
	c0,0.1,0,0.2,0,0.3c0,0.1,0,0.2,0,0.4c0,0.1,0,0.3,0,0.4c0,0.1,0,0.2,0,0.3c0,0.1,0,0.2,0,0.2h-0.4c-0.1-0.3-0.3-0.6-0.5-0.8
	c-0.2-0.2-0.4-0.4-0.7-0.5c-0.1-0.1-0.3-0.1-0.4-0.1c-0.1,0-0.3-0.1-0.5-0.1c-0.7,0-1.3,0.2-1.8,0.7c-0.4,0.5-0.7,1.2-0.7,1.9
	c0,0.3,0,0.5,0.1,0.7c0.1,0.2,0.1,0.5,0.2,0.7c0.1,0.2,0.2,0.4,0.4,0.6c0.2,0.2,0.3,0.3,0.5,0.5c0.2,0.1,0.4,0.2,0.6,0.3
	c0.2,0.1,0.4,0.1,0.7,0.1c0.2,0,0.5,0,0.7-0.1c0.2-0.1,0.4-0.2,0.6-0.3c0.2-0.1,0.3-0.3,0.5-0.5c0.1-0.2,0.3-0.4,0.4-0.6L225.8,73.4
	L225.8,73.4z"/>
<circle class="st3" cx="49.2" cy="34.8" r="2.3"/>
</svg>
