<?xml version="1.0" encoding="UTF-8"?><svg id="a" xmlns="http://www.w3.org/2000/svg" width="229.1702" height="95.4876" viewBox="0 0 229.1702 95.4876"><defs><style>.b{fill:#ff3131;}.b,.c,.d,.e{stroke-width:0px;}.c{fill:#00ff9b;}.d{fill:#3de2ff;}.e{fill:#141d37;}</style></defs><path class="d" d="m46.8459,61.6582c-2.6361-1.5513-5.6665-2.5279-8.5912-3.5741-1.5513-.5772-3.2133-.8297-4.8368-1.2266.0361-.3608.0722-.7215.1443-1.0823.8658-2.9969,3.069-4.9115,5.7387-6.102,4.5482-2.0203,9.1685-3.8988,13.7888-5.7026,2.8526-1.0849,5.4887-2.4557,7.509-4.7646.6133-.7241,1.1209-1.5538,1.6981-2.3475v8.0501c-3.033.6133-5.8495.8658-8.483,1.7677-2.6.9045-4.9476,2.4557-7.4007,3.7184l.1443.2886h20.937v-20.0686c-2.2032,0-4.3317.0361-6.4988-.0361-.8297-.1108-1.6234.3247-1.9842,1.1184-1.6234,2.9943-4.2956,5.2697-7.4729,6.4241-3.6102,1.3374-7.1843,2.6722-10.7558,4.0792-3.7906,1.5178-7.509,3.1773-10.3255,6.3545-4.9089,5.4501-3.5019,11.9128,3.2855,14.5824,1.3709.5411,2.8887.8684,4.2956,1.3374,1.3348.3968,2.5975.8658,3.8627,1.443,6.2076,3.1773,7.1095,9.1324,2.2728,14.0413-.6133-.0722-1.1184-.1082-1.6234-.1804-3.2133-.3968-6.5349-.3968-9.5653-1.2987-12.8147-3.7545-24.6193-15.1983-25.5598-30.4662-.0722-1.4095-.7215-2.3836-2.1646-2.7083-2.3475-.5051-3.6102.7215-3.3576,3.4659,1.3348,13.6445,8.4469,23.6813,19.8186,30.7909,5.2697,3.3576,11.3356,5.3083,17.5432,5.633l-2.7804,2.0203,3.8627,5.414c4.1874-3.1386,9.5318-9.4931,11.516-13.6445,3.1412-6.4963,1.1905-13.6445-5.0171-17.3268Z"/><path class="d" d="m55.1537,30.7256l-3.3216-.1804v-14.2964h-19.4913v14.4046h-16.1724v20.1072h8.5912l3.5019-5.3805h-6.7153v-9.2406h16.3888v-14.4742h8.483v15.0153c3.4298-.9741,7.2925-3.6102,8.7355-5.9551Z"/><path class="d" d="m4.0752,40.3656c1.876.2525,3.1747-.7576,3.4633-2.7804,1.9146-12.959,9.4957-21.4781,21.1199-26.6035,2.9222-1.3013,6.2076-1.8064,9.3128-2.6722,1.5513-.4329,2.4532-1.7316,2.1646-3.2494-.2886-1.5152-1.2987-2.2367-3.4659-2.2006-1.1905.2525-2.9943.6494-4.8007,1.0823C16.2045,7.9127,4.2556,20.9799,1.9081,36.6833c-.3247,2.0924.5051,3.4659,2.1671,3.6823Z"/><path class="d" d="m46.5985,8.3456c.3968.1082.8297.1804,1.2266.2525,9.8539,1.8425,17.6515,6.9317,23.5009,15.0179,2.9943,4.1513,4.945,8.7716,5.4501,13.9331.1082,1.3348.6133,2.7083,2.095,2.7083,1.0462.0361,2.4892-.3608,3.1025-1.1184.6133-.7602.5051-2.1671.3247-3.2133-2.4171-13.0672-10.0343-22.3465-21.4059-28.6985-4.0792-2.3114-8.6273-3.7906-13.2837-4.3317-2.095-.0361-3.1773.7576-3.3216,2.1646-.1804,1.7703.5411,2.8165,2.3114,3.2855Z"/><path class="d" d="m79.7704,45.1611c-1.6956-.0722-2.7779.9741-2.9582,2.9222-1.1931,12.5622-7.7615,21.4781-18.6642,27.5079-.6854.3968-1.2266,1.0101-1.5513,1.7316-.9741,2.0228-1.8425,4.1513-2.7083,6.1741,8.3748-2.6,15.2705-7.5811,20.7205-14.7293,4.5121-5.883,7.2204-12.959,7.8697-20.3597.2165-2.0203-.9019-3.1747-2.7083-3.2468Z"/><path class="e" d="m106.8609,40.5924l.9354.3118c-.4406,1.7909-.804,3.3241-1.09,4.5971h-11.3382v-.7009c1.5848-1.4302,3.1025-2.9479,4.5585-4.5585,2.0512-2.3398,3.0768-4.5095,3.0768-6.5091,0-.9869-.2577-1.778-.7782-2.3759-.4948-.6236-1.2085-.9354-2.1439-.9354-.8297,0-1.5461.2345-2.1414.7009-.5978.4406-1.1699,1.0514-1.7162,1.8321l-.8169-.6623,1.8296-2.649c1.1441-1.1699,2.5588-1.7548,4.2492-1.7548,1.4533,0,2.6748.4535,3.6617,1.3632s1.4817,2.1182,1.4817,3.6256c0,1.0385-.2989,2.0383-.8967,2.9995-.5721.9612-1.5848,2.1311-3.0407,3.5071l-3.2726,3.0768h4.4038c.6494,0,1.1158-.0258,1.4018-.0773.286-.0773.5334-.2345.7421-.4664.2319-.2345.5308-.6751.8942-1.3245Z"/><path class="e" d="m120.1884,45.5013h-8.7278v-.9741c.7782-.0515,1.3374-.1572,1.675-.3118.3633-.1572.5978-.3891.7009-.7009.1031-.3376.1572-.8581.1572-1.559v-9.975c0-.7267-.067-1.1828-.1958-1.3632-.1288-.2087-.4664-.3247-1.0127-.353l-1.5203-.0773v-.8555c1.4817-.2345,3.6359-.7164,6.4679-1.443v14.0671c0,.7009.0387,1.2214.1185,1.559.1031.3118.3247.5437.6623.7009.3633.1546.9225.2603,1.675.3118v.9741Z"/><path class="e" d="m132.2275,36.5776l-.8555.2731c-.8581-1.8708-1.8579-2.8062-3.002-2.8062-.3891,0-.7267.1314-1.0127.3891-.286.2603-.4278.6107-.4278,1.0539,0,.8555.7009,1.559,2.1027,2.1027,1.2987.5463,2.247,1.1184,2.8448,1.7162.6236.5953.9354,1.3889.9354,2.3759,0,1.2987-.5179,2.3114-1.559,3.0381-1.0127.7293-2.18,1.0926-3.5071,1.0926-.6751,0-1.3632-.1031-2.0641-.3118-.6751-.183-1.1699-.3891-1.4817-.6236-.2061-.7782-.3505-2.0512-.4278-3.8189l.8194-.0387c.3633,1.0127.8684,1.8837,1.5178,2.6104s1.3786,1.09,2.1826,1.09c.4406,0,.8066-.1288,1.09-.3891.286-.286.4303-.6494.4303-1.09,0-.4432-.1443-.8323-.4303-1.1699-.2835-.3376-.8426-.7009-1.675-1.09-1.0385-.469-1.9095-.9998-2.6104-1.5977-.7009-.6236-1.0514-1.4688-1.0514-2.5331,0-1.1184.4278-2.0512,1.2859-2.8062.8581-.7524,2.0125-1.1287,3.4684-1.1287h.2319c.8323,0,1.6646.1546,2.4944.4664.1314.286.2731.8066.4278,1.559.1572.7524.2474,1.2987.2731,1.6363Z"/><path class="e" d="m143.1765,44.4499l-2.2599,1.0514c-.4406.2087-.804.3118-1.09.3118-2.3372,0-3.5071-1.1699-3.5071-3.5071v-7.6765h-1.7935l-.1546-.3891.8194-.9741h1.1287v-2.0666l3.1953-2.2213.4278.1958v4.092h2.7289c.1288.1288.1933.3118.1933.5437,0,.3917-.1288.6648-.3891.8194h-2.5331v6.7797c0,1.5848.5205,2.3784,1.559,2.3784.4149,0,.8967-.1185,1.443-.353l.2319,1.0153Z"/><path class="e" d="m105.1138,59.9987l.5901.25c-.3041,1.0153-.621,1.9017-.956,2.6593-1.4379.2886-2.4996.4329-3.1798.4329-1.4095,0-2.6-.2577-3.5689-.7731-.956-.5308-1.6672-1.2034-2.1362-2.0228-.4561-.8323-.6829-1.7059-.6829-2.6129,0-1.6672.6133-3.0252,1.8399-4.0689,1.2292-1.0462,2.85-1.5693,4.8651-1.5693.5901,0,1.09.0387,1.4997.1134.4252.0773.9637.1907,1.6131.3401.2139,1.3039.3427,2.2058.3865,2.7057l-.6133.0902c-.2422-.9071-.6519-1.5513-1.2266-1.9301-.5746-.3943-1.2343-.5927-1.9764-.5927-1.2137,0-2.1594.4484-2.8423,1.3425s-1.023,1.9764-1.023,3.2494c0,1.4843.3788,2.6825,1.1364,3.5921s1.7265,1.3632,2.9093,1.3632c.7138,0,1.3425-.2113,1.8863-.6365.5463-.4252,1.0385-1.0694,1.4791-1.9326Z"/><path class="e" d="m112.682,61.0681l.2731.3865c-.4561.6674-.956,1.1364-1.4997,1.4095-.5463.2731-1.0385.4071-1.4791.4071-1.0591,0-1.894-.3324-2.4996-.9998-.6056-.6648-.9096-1.492-.9096-2.4764,0-.5618.1057-1.09.3195-1.5925.2113-.4999.5076-.9302.8864-1.2936.8323-.7731,1.6801-1.1596,2.5459-1.1596h.0206c.7293,0,1.358.2654,1.8863.7962.5308.5283.7962,1.1287.7962,1.7935-.0309.3505-.1958.5386-.4999.5695-.6674.0902-1.9764.1804-3.9323.2731.0464.8478.2731,1.492.6829,1.9326.4097.4381.9225.6571,1.5461.6571.6803,0,1.3013-.2345,1.8631-.7035Zm-2.7057-4.659h-.0232c-.317,0-.5978.1804-.8401.5437-.2422.3505-.3943.8349-.4535,1.4559.4381,0,1.0977-.0155,1.9764-.0464.2422,0,.3556-.0979.3401-.2938v-.0696c0-.4252-.0902-.7962-.2731-1.1132-.1804-.3195-.4226-.4767-.7267-.4767Z"/><path class="e" d="m122.7962,63.0909h-3.8421v-.5231c.335-.0309.5463-.1211.6365-.2731.0928-.152.1366-.5154.1366-1.09v-2.6825c0-.5308-.1134-.9174-.3401-1.1596-.2113-.2422-.4844-.3633-.8194-.3633-.3633,0-.7705.1675-1.2266.4999v3.8859c0,.4999.0387.8117.1134.9328.0773.1057.2963.1907.6597.25v.5231h-3.9787v-.5231c.4999-.0593.804-.152.9096-.2731.1211-.1211.183-.4613.183-1.023v-3.2958c0-.469-.0464-.7576-.1366-.8632-.0773-.1211-.3273-.2268-.7499-.317v-.4561c1.0307-.1675,2.0306-.3788,2.9995-.6365v1.2292c.3195-.2448.6597-.487,1.023-.7293.2731-.1649.4999-.2809.6829-.3401.1804-.0747.3788-.1134.5901-.1134.6829,0,1.2111.2345,1.5925.7035.3917.4561.5901,1.1003.5901,1.9326v2.9995c0,.487.0515.7962.1598.9328.1211.1211.3917.2036.8169.25v.5231Z"/><path class="e" d="m128.5915,62.4776l-1.3168.6133c-.2577.1211-.469.1804-.6365.1804-1.3632,0-2.046-.6803-2.046-2.0434v-4.4786h-1.0462l-.0902-.2268.4767-.5695h.6597v-1.2034l1.8631-1.2962.25.1134v2.3862h1.5925c.0747.0773.1134.183.1134.3195,0,.2268-.0773.3865-.2268.4767h-1.4791v3.9555c0,.9225.3041,1.3863.9096,1.3863.2422,0,.5231-.0696.8401-.2061l.1366.5927Z"/><path class="e" d="m137.8888,62.1813v.5231c-.4999.0747-.9766.1598-1.4327.25-.469.0902-.9998.1958-1.5899.317l-.1366-.1134v-.9766c-.3633.2886-.6442.4922-.8401.6133-.5308.3195-1.0076.4767-1.4327.4767-.6829,0-1.2137-.2036-1.5925-.6133-.3788-.4071-.5669-.9844-.5669-1.7265v-3.2494c0-.3659-.0387-.6004-.1134-.7061-.0618-.1211-.2061-.2113-.4329-.2731l-.3865-.1134v-.4767c.4716-.0309.9483-.0696,1.4327-.1134.5746-.0309,1.1209-.0825,1.6363-.1598-.0309.4406-.0464,1.242-.0464,2.4094v2.363c0,.487.1082.8504.3195,1.0926.2268.2268.4999.3401.8194.3401.4844,0,.8864-.1598,1.2034-.4767v-3.8859c0-.3788-.0387-.6236-.1134-.7293-.0618-.1211-.2036-.2036-.4329-.25l-.5437-.1134v-.4767c.5746-.0309,1.1364-.0696,1.6801-.1134.5772-.0309,1.0849-.0825,1.5229-.1598v5.2284c0,.4252.0387.7035.1134.8401.0773.1211.2731.2061.5927.25l.3401.0232Z"/><path class="e" d="m142.0247,57.4527h.0464c.3041-.5154.6133-.9225.9328-1.2266.3324-.317.6442-.4767.9302-.4767.3195,0,.5849.0979.7962.2938.2113.1984.3195.4329.3195.7061,0,.2886-.0773.5463-.2293.7731-.1495.2113-.3401.3556-.5669.4303-.0773.0155-.1443.0232-.2036.0232-.1082,0-.2061-.0309-.2963-.0902-.2731-.2268-.5308-.3401-.7731-.3401-.3788,0-.6983.2938-.956.8864v2.9531c0,.3659.0232.6159.0696.7499.0593.1366.1752.2371.3401.2963.183.0464.5076.0902.9792.1366v.5231h-4.5482v-.5231c.4716-.0593.7653-.152.8864-.2731s.183-.4226.183-.9096v-3.5226c0-.3943-.0541-.6442-.1598-.7499-.0902-.1211-.3324-.2268-.7267-.317v-.4561c1.0153-.1211,2.0074-.3247,2.9763-.6133v1.7265Z"/><path class="e" d="m153.6643,55.953v.4999c-.3943.0773-.6751.183-.8426.3195-.1495.1366-.3324.4226-.5437.8632-.3788.7731-1.023,2.2651-1.9326,4.4786-.8349,1.9095-1.425,3.4324-1.7729,4.5688-.1211.286-.3273.4303-.6133.4303-.2577,0-.5154-.1057-.7731-.317-.2577-.2139-.3865-.4561-.3865-.7293,0-.2706.152-.4844.4535-.6365.6365-.317,1.1003-.7267,1.3863-1.2266.1366-.1804.2422-.3943.3195-.6365.0309-.0902.0438-.1804.0438-.2731,0-.1649-.0361-.3324-.1134-.4999-.9534-2.5897-1.6363-4.3703-2.046-5.3418-.1495-.3324-.3092-.5592-.4767-.6803-.152-.1366-.4303-.2422-.8401-.3195v-.4999h4.1127v.4999c-.286.0618-.4844.1211-.5901.183-.0902.0593-.1366.1443-.1366.25,0,.0747.0155.1726.0464.2963l1.273,3.5896c.2422-.5437.6597-1.6827,1.2498-3.4092.0464-.1211.067-.2268.067-.317,0-.2731-.2783-.4716-.8401-.5927v-.4999h2.9557Z"/><path class="e" d="m171.3699,63.0909h-4.9089v-.5695c.5592-.0438.9148-.1495,1.0668-.317.1675-.183.25-.5772.25-1.1828v-.2938l-.0206-6.1613h-.0928l-3.7261,8.4341h-.4561l-3.4324-8.3207h-.067l-.2268,4.2518c-.0309.5437-.0464,1.0153-.0464,1.4095,0,.4844.0232.8942.067,1.2266.0464.3479.1598.5824.3427.7035.1958.1082.5824.1907,1.1596.25v.5695h-4.0251v-.5695c.4561-.0438.7808-.1366.9792-.2706.2113-.152.3479-.3788.4071-.6829.1211-.6983.2371-1.7342.3427-3.1154l.25-3.1128c.0283-.3943.0438-.7035.0438-.9328,0-.4844-.0979-.8014-.2938-.9534-.183-.1675-.5695-.2809-1.1596-.3401v-.5695h3.4324l3.2494,7.1379,3.3422-7.1379h3.319v.5695c-.621.0593-1.0076.1649-1.1596.317-.152.1366-.2268.4767-.2268,1.023v.3195l.1804,5.9551c-.0155.7267.0541,1.1957.2061,1.407.1649.2139.5669.3427,1.2034.3865v.5695Z"/><path class="e" d="m178.3944,61.0681l.2706.3865c-.4535.6674-.9534,1.1364-1.4997,1.4095-.5437.2731-1.0385.4071-1.4765.4071-1.0617,0-1.894-.3324-2.4996-.9998-.6081-.6648-.9096-1.492-.9096-2.4764,0-.5618.1057-1.09.317-1.5925.2139-.4999.5076-.9302.8864-1.2936.8349-.7731,1.6827-1.1596,2.5459-1.1596h.0232c.7267,0,1.3554.2654,1.8863.7962.5308.5283.7962,1.1287.7962,1.7935-.0309.3505-.1984.5386-.4999.5695-.6674.0902-1.979.1804-3.9323.2731.0464.8478.2731,1.492.6803,1.9326.4097.4381.9251.6571,1.5461.6571.6829,0,1.3039-.2345,1.8656-.7035Zm-2.7057-4.659h-.0232c-.317,0-.5978.1804-.8401.5437-.2422.3505-.3943.8349-.4561,1.4559.4406,0,1.1003-.0155,1.979-.0464.2422,0,.3556-.0979.3401-.2938v-.0696c0-.4252-.0902-.7962-.2731-1.1132-.1804-.3195-.4226-.4767-.7267-.4767Z"/><path class="e" d="m188.1891,62.1581v.4999c-.2113.0464-.6648.1288-1.3632.25-.6958.1082-1.3245.2422-1.8863.4097v-.9766l-1.0462.6597c-.2886.1804-.5514.2706-.7962.2706-.4999,0-1.0127-.1263-1.5435-.384-.5308-.2731-.9792-.6751-1.3425-1.206-.3479-.5463-.5231-1.1982-.5231-1.9558,0-1.09.4406-2.0228,1.3194-2.7933.8787-.7885,1.9636-1.1828,3.2494-1.1828.1366,0,.3633.0232.6829.067v-1.9996c0-.4097-.0618-.6674-.183-.7731-.1211-.1211-.4303-.219-.9302-.2963v-.4999c1.3168-.1495,2.3862-.3401,3.203-.5669v9.3411c0,.4716.0464.7576.1366.8632.0928.1082.3273.183.7061.2293l.317.0438Zm-3.2494-.3865v-4.4992c-.2731-.5463-.6906-.8194-1.2498-.8194-.183,0-.402.085-.6597.25-.2577.152-.4922.4406-.7035.8632-.1984.4252-.2963,1.0024-.2963,1.7291,0,.9096.2113,1.5977.6365,2.0692.4252.4535.8632.6803,1.3194.6803.3324,0,.6494-.0902.9534-.2731Z"/><path class="e" d="m191.2117,54.68c-.3015,0-.5669-.1057-.7937-.317-.2268-.2268-.3427-.4922-.3427-.7962,0-.3324.116-.6056.3427-.8194.2268-.2268.4999-.3401.8169-.3401.335,0,.6133.1134.8426.3401.2268.2139.3401.487.3401.8194,0,.3041-.1134.5695-.3401.7962-.2293.2113-.5154.317-.8658.317Zm2.296,8.4109h-4.2492v-.5231c.469-.0464.7653-.1366.8864-.2731.1211-.152.1804-.5154.1804-1.09v-3.136c0-.5308-.0593-.8658-.1804-1.0024-.1057-.134-.3479-.2268-.7267-.2706v-.4793c1.1209-.1366,2.1208-.3247,2.9995-.5669v5.4552c0,.4097.0232.6958.067.8632.0464.152.1366.2577.2731.317.1366.0618.3865.1237.7499.183v.5231Z"/><path class="e" d="m204.145,59.9987l.5927.25c-.3041,1.0153-.621,1.9017-.956,2.6593-1.4379.2886-2.4996.4329-3.1824.4329-1.407,0-2.5975-.2577-3.5664-.7731-.956-.5308-1.6672-1.2034-2.1388-2.0228-.4535-.8323-.6803-1.7059-.6803-2.6129,0-1.6672.6133-3.0252,1.8399-4.0689,1.2292-1.0462,2.85-1.5693,4.8651-1.5693.5901,0,1.09.0387,1.4997.1134.4252.0773.9637.1907,1.6131.3401.2139,1.3039.3427,2.2058.3865,2.7057l-.6133.0902c-.2422-.9071-.6519-1.5513-1.2266-1.9301-.5772-.3943-1.2343-.5927-1.979-.5927-1.2111,0-2.1594.4484-2.8397,1.3425-.6829.8942-1.023,1.9764-1.023,3.2494,0,1.4843.3788,2.6825,1.1364,3.5921s1.7265,1.3632,2.9093,1.3632c.7112,0,1.34-.2113,1.8863-.6365s1.0385-1.0694,1.4765-1.9326Z"/><path class="e" d="m212.9656,62.341l-1.7961.9302c-.4097,0-.7499-.1057-1.023-.317-.1958-.1958-.3324-.402-.4097-.6133-.7731.4844-1.2266.7576-1.3632.8169-.1211.0773-.2422.1134-.3633.1134-.6674,0-1.2034-.2113-1.6131-.6339-.4097-.4252-.6133-.9019-.6133-1.4327,0-.4252.0979-.7421.2938-.956.1984-.2268.5231-.4226.9792-.5901,1.0282-.3633,1.6801-.5978,1.9533-.7035.2731-.1082.4922-.2293.6597-.3659v-.4071c0-.5308-.0902-.9406-.2731-1.2292-.1675-.286-.4175-.4303-.7499-.4303-.1958,0-.3711.0979-.5231.2938-.152.183-.3092.5618-.4767,1.1364-.1057.3659-.3479.5463-.7267.5463-.2139,0-.4329-.0825-.6597-.25-.2268-.1804-.3427-.3711-.3427-.5669,0-.152.0464-.2809.1366-.3865.0928-.1082.2448-.2371.4561-.3865.7576-.5154,1.6595-.9019,2.7057-1.1596.6494,0,1.1802.1443,1.5899.4303.3479.2577.5824.5618.7035.9096.1366.3505.2061.7885.2061,1.3194v2.5897c0,.6365.1726.956.5231.956.1495,0,.3401-.0464.5669-.1366l.1598.5231Zm-3.2958-.5463v-2.5897c-.4406.2577-.7421.4303-.9096.5205-.2731.1237-.469.2731-.5901.4561-.1211.1675-.183.3788-.183.6365,0,.4252.1057.7421.3195.9534.2113.1984.4303.2963.6571.2963.1984,0,.4329-.0902.7061-.2731Z"/><path class="e" d="m217.0344,57.4527h.0438c.3041-.5154.6159-.9225.9328-1.2266.3324-.317.6442-.4767.9328-.4767.317,0,.5824.0979.7937.2938.2139.1984.3195.4329.3195.7061,0,.2886-.0747.5463-.2268.7731-.152.2113-.3427.3556-.5695.4303-.0747.0155-.1443.0232-.2036.0232-.1057,0-.2061-.0309-.2963-.0902-.2731-.2268-.5308-.3401-.7731-.3401-.3788,0-.6958.2938-.9534.8864v2.9531c0,.3659.0232.6159.067.7499.0618.1366.1752.2371.3427.2963.1804.0464.5076.0902.9766.1366v.5231h-4.5456v-.5231c.469-.0593.7653-.152.8864-.2731s.1804-.4226.1804-.9096v-3.5226c0-.3943-.0515-.6442-.1572-.7499-.0928-.1211-.335-.2268-.7293-.317v-.4561c1.0153-.1211,2.0074-.3247,2.9788-.6133v1.7265Z"/><path class="e" d="m226.9888,61.0681l.2731.3865c-.4535.6674-.9534,1.1364-1.4997,1.4095s-1.0385.4071-1.4765.4071c-1.0617,0-1.894-.3324-2.5021-.9998-.6056-.6648-.9071-1.492-.9071-2.4764,0-.5618.1057-1.09.317-1.5925.2113-.4999.5076-.9302.8864-1.2936.8323-.7731,1.6827-1.1596,2.5459-1.1596h.0232c.7267,0,1.3554.2654,1.8863.7962.5308.5283.7962,1.1287.7962,1.7935-.0309.3505-.1984.5386-.4999.5695-.6674.0902-1.979.1804-3.9323.2731.0438.8478.2706,1.492.6803,1.9326.4097.4381.9251.6571,1.5461.6571.6829,0,1.3039-.2345,1.8631-.7035Zm-2.7031-4.659h-.0232c-.3195,0-.5978.1804-.8426.5437-.2422.3505-.3917.8349-.4535,1.4559.4406,0,1.0977-.0155,1.9764-.0464.2448,0,.3582-.0979.3427-.2938v-.0696c0-.4252-.0928-.7962-.2731-1.1132-.183-.3195-.4252-.4767-.7267-.4767Z"/><path class="c" d="m99.6246,72.1525c.1082.0206.219.0412.3298.0618.1082.0155.2165.0206.3195.0206.2113,0,.4123-.0309.5978-.0928.1907-.0618.3556-.1546.4948-.2783.1443-.1288.2525-.2912.3298-.4844.0825-.1984.1237-.4278.1237-.6906,0-.2525-.0412-.4741-.1237-.6597s-.1958-.3401-.3401-.4638c-.1392-.1237-.3041-.2113-.4948-.268-.1855-.0618-.3865-.0928-.5978-.0928-.1031,0-.2113.0077-.3195.0206-.1031.0155-.2113.0361-.3195.0618v2.8655Zm0,1.9172c0,.1392.0129.2551.0412.3505.0335.0979.0953.1752.1855.2371.0876.0567.2087.0979.3608.1237.1572.0283.3556.0412.5978.0412v.402h-3.453v-.402c.1855,0,.3324-.0103.4432-.0309.1082-.0206.1958-.0515.2577-.0928.067-.0464.1134-.1057.134-.1752.0206-.0747.0309-.1675.0309-.2783v-4.3291c0-.1237-.018-.2216-.0515-.2989-.0283-.0747-.0799-.134-.1546-.1752-.0696-.0412-.1623-.067-.2783-.0825-.1185-.0206-.2654-.0309-.4432-.0309v-.402c.2061-.0206.4175-.0361.6391-.0515.219-.0129.4355-.0232.6494-.0309.219-.0129.4278-.0232.6288-.0309.2061-.0129.3943-.0206.5669-.0206.1701-.0052.3221-.0129.4535-.0206.1288-.0052.2319-.0103.3092-.0103.2319.0077.4638.0283.6906.0618.2268.0283.4432.0773.6494.1443.2061.0618.3943.1443.5669.2474.1778.1031.3324.2268.4638.3711.1288.1443.2293.317.2989.5154.0747.1933.1134.4097.1134.6494,0,.317-.0722.5953-.2165.8349-.1443.2422-.3401.4432-.5875.6081s-.5334.2886-.8555.3711c-.3247.0825-.6597.1237-1.0101.1237-.1649,0-.3376-.0052-.5154-.0206-.1804-.0206-.3505-.0515-.5154-.0928v1.4946Z"/><path class="c" d="m108.6304,72.6163c0,.3041.0309.5927.0928.8658.067.268.1598.5102.2783.7215.1237.2139.2628.3814.4226.5051.1649.1237.3453.1855.5463.1855.6107,0,.9174-.4175.9174-1.2575,0-.3144-.0361-.6081-.1031-.8761-.0618-.2731-.152-.5102-.268-.7112-.1185-.1984-.2577-.353-.4226-.4638-.1598-.1082-.335-.1649-.5257-.1649-.6262,0-.938.3994-.938,1.1957Zm-1.3297.6081c0-.3092.0618-.6004.1855-.8761.1237-.2731.2938-.5102.5154-.7112.2268-.2061.4948-.3659.804-.4844.3144-.116.6597-.1752,1.0307-.1752.3427,0,.6597.0515.9483.1546.2938.1031.5489.2474.7627.4329.2113.1855.3762.4097.4948.67.1237.2628.1855.5437.1855.8452,0,.3092-.067.603-.1958.8761-.1237.2757-.2989.5154-.5257.7215-.2216.201-.4896.3582-.804.4741-.3092.116-.6494.1752-1.0204.1752-.3298,0-.6442-.049-.938-.1443-.2886-.0953-.5411-.2319-.7524-.4123-.2139-.1855-.3814-.4071-.5051-.67-.1237-.2603-.1855-.5514-.1855-.8761Z"/><path class="c" d="m117.888,68.4521v5.7412c0,.2268.0515.3994.1546.5154.1031.1185.2525.1804.4535.1855v.3298h-2.5253v-.3298h.1134c.2061,0,.3505-.0515.4329-.1546.0876-.1082.134-.2912.134-.5463v-4.1642c0-.1907-.0103-.3144-.0309-.3711-.0155-.0541-.0412-.1031-.0825-.1443s-.0928-.0747-.1546-.1031c-.0618-.0258-.1314-.0515-.2061-.0722-.0773-.0258-.1546-.0541-.2371-.0825v-.2989c.0335-.0052.0953-.0232.1855-.0515.0876-.0258.1907-.0567.3092-.0928.1237-.0335.25-.067.3814-.1031.1366-.0412.2628-.0773.3814-.1134.116-.0335.219-.0644.3092-.0928.0953-.0258.1598-.0438.1958-.0515h.1855Z"/><path class="c" d="m124.2419,75.121c-.0155-.0129-.0412-.0644-.0825-.1546-.0412-.0876-.0979-.1958-.1649-.3195-.0618-.1288-.1314-.2731-.2061-.4329-.0773-.1649-.1546-.3298-.2371-.4948s-.1649-.3247-.2474-.4844c-.0773-.1649-.1443-.3092-.2061-.4329-.0618-.1288-.1134-.2371-.1546-.3195s-.067-.1288-.0722-.1443c-.0773-.1495-.1417-.2809-.1958-.3917-.0567-.1082-.1031-.1855-.1443-.2268-.0773-.0876-.1701-.1572-.2783-.2061-.1108-.0541-.2242-.085-.3401-.0928v-.3298h2.5872v.3298c-.1855.0077-.317.0361-.3917.0825-.0773.0412-.1134.1108-.1134.2061,0,.0567.0129.1288.0412.2165.0335.0825.0747.1752.1237.2783.0541.1031.1057.2113.1546.3195.0541.1108.1057.2139.1546.3092.0747.1598.1495.317.2268.4741.0747.152.1469.2989.2165.4432.0206-.0335.0515-.0876.0928-.1649.0412-.0825.085-.1752.134-.2783.0541-.1082.1082-.2216.1649-.3401.0618-.116.116-.2268.1649-.3298.0541-.1031.0979-.1907.134-.268.0412-.0747.067-.1263.0825-.1546.0618-.1366.0928-.2603.0928-.3711,0-.1366-.0567-.2396-.1649-.3092-.1108-.067-.2654-.1057-.4638-.1134v-.3298h1.8966v.3298c-.1185.0283-.2165.0593-.2989.0928-.0773.0361-.1443.0825-.2061.1443-.0618.0567-.1211.1314-.1752.2268-.0567.0902-.1185.2036-.1855.3401-.0155.0206-.0567.1031-.1237.2474-.0696.1391-.1546.3144-.2577.5257-.1031.2139-.2242.4535-.3608.7215-.1314.2628-.2654.5308-.402.804-.1314.2757-.2628.5463-.3917.8143-.1314.268-.2474.5076-.3505.7215-.1031.2113-.1907.3865-.2577.5257-.0696.1443-.1108.2268-.1237.2474-.1185.2319-.2577.4149-.4226.5463-.1598.1288-.3273.1958-.5051.1958-.0902,0-.1752-.0155-.2577-.0412-.0773-.0283-.1417-.0696-.1958-.1237-.0567-.0567-.1005-.1185-.134-.1855-.0283-.0696-.0412-.1495-.0412-.2371,0-.1726.0438-.3092.134-.4123.0876-.0979.2113-.1546.3711-.1752.0206,0,.0361-.0052.0515-.0103.0129-.0077.0258-.0155.0412-.0206.116-.0155.219-.0361.3092-.0618.0953-.0206.1855-.0593.268-.1134.0876-.049.1752-.1237.2577-.2268.0825-.0979.1649-.2319.2474-.402l.2061-.4432Z"/><path class="c" d="m142.8961,73.3997c-.049.2963-.1237.6056-.2268.9277-.0979.317-.2139.6262-.3505.9277-.152-.0464-.3505-.0722-.5978-.0722-.0361,0-.0928.0077-.1752.0206-.0825.0077-.1752.018-.2783.0309-.1031.0129-.2139.0258-.3298.0412-.1185.0206-.2345.0361-.3505.0515-.1185.0129-.2268.0232-.3298.0309-.1031.0129-.1933.0206-.268.0206-.3247,0-.6391-.0387-.9483-.1134-.3041-.067-.5927-.1675-.8658-.2989-.2835-.1443-.5437-.3195-.7834-.5257-.2422-.2113-.4432-.4432-.6081-.6906-.152-.2396-.2731-.4999-.3608-.7834-.0825-.2886-.1237-.5798-.1237-.8761,0-.9277.3736-1.711,1.1235-2.3501.3762-.3221.7937-.5618,1.2472-.7215.4535-.1649.9534-.2474,1.5049-.2474.1649,0,.3247.0155.4844.0412.1649.0206.3195.049.4638.0825.1495.0283.2886.0618.4123.1031.1237.0361.2319.0696.3298.1031.0618.0283.116.0515.1649.0722.0464.0155.0747.0206.0825.0206.0825,0,.1469-.0335.1958-.1031h.268c0,.0283.0026.0876.0103.1752.0052.0902.0103.1958.0103.3195.0052.1185.0129.2448.0206.3814.0129.1314.0232.2577.0309.3814.0052.1237.0103.2345.0103.3298.0052.0902.0103.152.0103.1855h-.402c-.1108-.3298-.2654-.6107-.4638-.8452-.1933-.2396-.4123-.4175-.6597-.536-.1392-.0618-.2835-.1057-.4329-.134-.1443-.0335-.2963-.0515-.4535-.0515-.7215,0-1.309.2474-1.7626.7421-.4484.5102-.67,1.1596-.67,1.9481,0,.2628.0232.5102.0722.7421.0541.2345.134.4587.2371.67.1082.2268.2422.4303.402.6081.1649.1804.3453.335.5463.4638.1907.1391.3943.2371.6081.2989.219.0618.4458.0928.6803.0928.2319,0,.4561-.0335.67-.1031.2113-.067.4149-.1675.6081-.2989.1701-.1288.3247-.2835.4638-.4638.1443-.1778.268-.3762.3711-.5978h.4123Z"/><path class="c" d="m148.5094,68.4521v5.7412c0,.2268.0515.3994.1546.5154.1031.1185.2525.1804.4535.1855v.3298h-2.5253v-.3298h.1134c.2061,0,.3505-.0515.4329-.1546.0876-.1082.134-.2912.134-.5463v-4.1642c0-.1907-.0103-.3144-.0309-.3711-.0155-.0541-.0412-.1031-.0825-.1443s-.0928-.0747-.1546-.1031c-.0618-.0258-.1314-.0515-.2061-.0722-.0773-.0258-.1546-.0541-.2371-.0825v-.2989c.0335-.0052.0953-.0232.1855-.0515.0876-.0258.1907-.0567.3092-.0928.1237-.0335.25-.067.3814-.1031.1366-.0412.2628-.0773.3814-.1134.116-.0335.219-.0644.3092-.0928.0953-.0258.1598-.0438.1958-.0515h.1855Z"/><path class="c" d="m153.9356,68.5758c.1082,0,.2113.018.3092.0515.0953.0361.1778.0825.2474.1443.0747.0567.134.1288.1752.2165.0412.0825.0618.1752.0618.2783s-.0206.1958-.0618.2783-.1005.1546-.1752.2165c-.0773.0618-.1623.1108-.2577.1443-.0979.0361-.1958.0515-.2989.0515-.1108,0-.2165-.0155-.3195-.0515-.0979-.0335-.183-.0825-.2577-.1443-.0773-.0618-.1391-.134-.1855-.2165-.0412-.0876-.0618-.1804-.0618-.2783,0-.0953.0232-.1855.0722-.268.0464-.0825.1082-.1546.1855-.2165.0747-.067.1598-.1185.2577-.1546.1031-.0335.2061-.0515.3092-.0515Zm1.2781,6.6483h-2.5356v-.3298h.1031c.2061,0,.3505-.0515.4329-.1546.0876-.1082.134-.2912.134-.5463v-1.9481c0-.0747-.0103-.1366-.0309-.1855-.0206-.0541-.0567-.0979-.1031-.134-.049-.0412-.1185-.0773-.2061-.1134-.0825-.0335-.1933-.0747-.3298-.1237v-.2474c.2731-.0876.5618-.1855.8658-.2886.3015-.1031.5901-.1984.8658-.2886h.1855v3.3911c0,.2061.0515.3659.1546.4741.1082.1031.2628.1598.4638.1649v.3298Z"/><path class="c" d="m163.751,74.2964c0,.1108.0103.2036.0309.2783.0206.0696.0515.1288.0928.1752.0464.049.1057.0825.1752.1031.0747.0206.1649.0361.268.0412v.3298h-2.4016v-.3298c.1082-.0129.1984-.0412.268-.0825.0747-.0464.1366-.116.1855-.2061.0464-.0876.0825-.201.1031-.3401.0206-.1443.0309-.3144.0309-.5154v-.8761c0-.7421-.2061-1.1132-.6184-1.1132-.1443,0-.3092.0387-.4948.1134-.1804.0773-.3711.1855-.5772.3298v2.0409c0,.4329.1984.6494.5978.6494h.0928v.3298h-2.5665v-.3298h.0618c.2061,0,.353-.0541.4432-.1649.0876-.1082.134-.2886.134-.536v-1.9687c0-.1031-.0412-.1907-.1237-.268-.0825-.0747-.201-.1366-.3505-.1855-.0077-.0052-.0206-.0129-.0412-.0206-.0155-.0052-.0258-.0052-.0309,0-.0155-.0052-.0361-.0129-.0618-.0206-.0206-.0129-.049-.0232-.0825-.0309v-.2474c.0335-.0052.0953-.0258.1855-.0618.0876-.0335.1907-.067.3092-.1031.116-.0412.2396-.0825.3711-.1237.1366-.0464.2628-.0928.3814-.134.116-.0412.219-.0747.3092-.1031.0876-.0335.1469-.0541.1752-.0618h.1958v.8967c.3968-.2603.7473-.4561,1.0514-.5875.3092-.1288.5798-.1958.8143-.1958.384,0,.6597.1443.8246.4329.1649.2835.2474.7189.2474,1.309v1.577Z"/><path class="c" d="m169.1949,68.5758c.1082,0,.2113.018.3092.0515.0953.0361.1778.0825.2474.1443.0747.0567.134.1288.1752.2165.0412.0825.0618.1752.0618.2783s-.0206.1958-.0618.2783-.1005.1546-.1752.2165c-.0773.0618-.1623.1108-.2577.1443-.0979.0361-.1958.0515-.2989.0515-.1108,0-.2165-.0155-.3195-.0515-.0979-.0335-.183-.0825-.2577-.1443-.0773-.0618-.1391-.134-.1855-.2165-.0412-.0876-.0618-.1804-.0618-.2783,0-.0953.0232-.1855.0722-.268.0464-.0825.1082-.1546.1855-.2165.0747-.067.1598-.1185.2577-.1546.1031-.0335.2061-.0515.3092-.0515Zm1.2781,6.6483h-2.5356v-.3298h.1031c.2061,0,.3505-.0515.4329-.1546.0876-.1082.134-.2912.134-.5463v-1.9481c0-.0747-.0103-.1366-.0309-.1855-.0206-.0541-.0567-.0979-.1031-.134-.049-.0412-.1185-.0773-.2061-.1134-.0825-.0335-.1933-.0747-.3298-.1237v-.2474c.2731-.0876.5618-.1855.8658-.2886.3015-.1031.5901-.1984.8658-.2886h.1855v3.3911c0,.2061.0515.3659.1546.4741.1082.1031.2628.1598.4638.1649v.3298Z"/><path class="c" d="m178.6393,74.2449c-.2422.3505-.536.6184-.8864.804s-.7473.2783-1.1854.2783c-.8529,0-1.4714-.3195-1.8553-.9586-.0902-.1572-.1598-.3195-.2061-.4844-.0412-.1701-.0618-.3556-.0618-.5566,0-.4381.1134-.8401.3401-1.206.116-.1701.2525-.3247.4123-.4638.1572-.1443.335-.268.536-.3711.4046-.2061.8478-.3092,1.3297-.3092.2061,0,.402.0206.5875.0618.1855.0361.3453.0902.4844.1649.1366.0773.2474.1701.3298.2783.0825.1031.1237.2242.1237.3608,0,.3376-.1726.5051-.5154.5051-.2551,0-.5102-.1495-.7627-.4535-.268-.2938-.4999-.4432-.6906-.4432-.1237,0-.2422.0412-.3505.1237-.1031.0825-.1933.1933-.268.3298-.0773.1392-.134.2989-.1752.4844-.0361.1855-.0515.3814-.0515.5875,0,.2551.0258.4948.0825.7215.0618.2216.1469.4123.2577.5772.1082.1598.2396.286.3917.3814.1572.0902.335.134.536.134.219,0,.4381-.0567.6597-.1752.219-.1237.4278-.3015.6288-.536l.3092.1649Z"/><path class="c" d="m193.8528,73.4615c-.0155.0361-.0412.0979-.0825.1855-.0361.0902-.0773.1933-.1237.3092-.049.1185-.1005.2422-.1546.3711-.0567.1314-.1108.2577-.1649.3814-.049.1185-.0928.2242-.134.3195-.0412.0902-.0696.1546-.0825.1958h-5.4114v-.402h.1546c.1649,0,.2989-.0129.402-.0412.1082-.0335.1958-.0825.2577-.1443.067-.0618.116-.1366.1443-.2268.0258-.0876.0412-.1958.0412-.3195v-4.0405c0-.4793-.2654-.7215-.7937-.7215h-.1958v-.402h3.4427v.402h-.3092c-.4948,0-.7421.2345-.7421.7009v4.1745c0,.0902.0052.1649.0206.2268.0206.0567.0464.1005.0825.134.0412.0361.0928.0593.1546.0722.067.0155.1495.0206.2474.0206h1.2884c.1778,0,.3453-.0361.5051-.1134.1572-.0747.2938-.1804.4123-.3195.0618-.0618.1469-.1598.2577-.2989.1082-.1366.2319-.2912.3711-.4638h.4123Z"/><path class="c" d="m198.7071,74.2139c0,.0902-.018.1752-.0515.2577-.0361.0773-.0825.1443-.1443.2061-.0567.0567-.1237.1005-.2061.134-.0825.0283-.1701.0412-.2577.0412-.0979,0-.1855-.0129-.268-.0412-.0773-.0335-.1443-.0825-.2061-.1443-.0567-.0618-.1005-.1288-.134-.2061-.0361-.0825-.0515-.1701-.0515-.268,0-.0953.0155-.1804.0515-.2577.0335-.0825.0825-.1495.1443-.2061.0618-.0618.1288-.1082.2061-.1443.0825-.0335.1675-.0515.2577-.0515.0876,0,.1752.018.2577.0515.0825.0361.1495.0825.2061.1443.0618.0618.1082.134.1443.2165.0335.0825.0515.1726.0515.268Z"/><path class="c" d="m209.425,73.4615c-.0155.0361-.0412.0979-.0825.1855-.0361.0902-.0773.1933-.1237.3092-.049.1185-.1005.2422-.1546.3711-.0567.1314-.1108.2577-.1649.3814-.049.1185-.0928.2242-.134.3195-.0412.0902-.0696.1546-.0825.1958h-5.4114v-.402h.1546c.1649,0,.2989-.0129.402-.0412.1082-.0335.1958-.0825.2577-.1443.067-.0618.116-.1366.1443-.2268.0258-.0876.0412-.1958.0412-.3195v-4.0405c0-.4793-.2654-.7215-.7937-.7215h-.1958v-.402h3.4427v.402h-.3092c-.4948,0-.7421.2345-.7421.7009v4.1745c0,.0902.0052.1649.0206.2268.0206.0567.0464.1005.0825.134.0412.0361.0928.0593.1546.0722.067.0155.1495.0206.2474.0206h1.2884c.1778,0,.3453-.0361.5051-.1134.1572-.0747.2938-.1804.4123-.3195.0618-.0618.1469-.1598.2577-.2989.1082-.1366.2319-.2912.3711-.4638h.4123Z"/><path class="c" d="m214.2793,74.2139c0,.0902-.018.1752-.0515.2577-.0361.0773-.0825.1443-.1443.2061-.0567.0567-.1237.1005-.2061.134-.0825.0283-.1701.0412-.2577.0412-.0979,0-.1855-.0129-.268-.0412-.0773-.0335-.1443-.0825-.2061-.1443-.0567-.0618-.1005-.1288-.134-.2061-.0361-.0825-.0515-.1701-.0515-.268,0-.0953.0155-.1804.0515-.2577.0335-.0825.0825-.1495.1443-.2061.0618-.0618.1288-.1082.2061-.1443.0825-.0335.1675-.0515.2577-.0515.0876,0,.1752.018.2577.0515.0825.0361.1495.0825.2061.1443.0618.0618.1082.134.1443.2165.0335.0825.0515.1726.0515.268Z"/><path class="c" d="m225.8114,73.3997c-.049.2963-.1237.6056-.2268.9277-.0979.317-.2139.6262-.3505.9277-.152-.0464-.3505-.0722-.5978-.0722-.0361,0-.0928.0077-.1752.0206-.0825.0077-.1752.018-.2783.0309-.1031.0129-.2139.0258-.3298.0412-.1185.0206-.2345.0361-.3505.0515-.1185.0129-.2268.0232-.3298.0309-.1031.0129-.1933.0206-.268.0206-.3247,0-.6391-.0387-.9483-.1134-.3041-.067-.5927-.1675-.8658-.2989-.2835-.1443-.5437-.3195-.7834-.5257-.2422-.2113-.4432-.4432-.6081-.6906-.152-.2396-.2731-.4999-.3608-.7834-.0825-.2886-.1237-.5798-.1237-.8761,0-.9277.3736-1.711,1.1235-2.3501.3762-.3221.7937-.5618,1.2472-.7215.4535-.1649.9534-.2474,1.5049-.2474.1649,0,.3247.0155.4844.0412.1649.0206.3195.049.4638.0825.1495.0283.2886.0618.4123.1031.1237.0361.2319.0696.3298.1031.0618.0283.116.0515.1649.0722.0464.0155.0747.0206.0825.0206.0825,0,.1469-.0335.1958-.1031h.268c0,.0283.0026.0876.0103.1752.0052.0902.0103.1958.0103.3195.0052.1185.0129.2448.0206.3814.0129.1314.0232.2577.0309.3814.0052.1237.0103.2345.0103.3298.0052.0902.0103.152.0103.1855h-.402c-.1108-.3298-.2654-.6107-.4638-.8452-.1933-.2396-.4123-.4175-.6597-.536-.1392-.0618-.2835-.1057-.4329-.134-.1443-.0335-.2963-.0515-.4535-.0515-.7215,0-1.309.2474-1.7626.7421-.4484.5102-.67,1.1596-.67,1.9481,0,.2628.0232.5102.0722.7421.0541.2345.134.4587.2371.67.1082.2268.2422.4303.402.6081.1649.1804.3453.335.5463.4638.1907.1391.3943.2371.6081.2989.219.0618.4458.0928.6803.0928.2319,0,.4561-.0335.67-.1031.2113-.067.4149-.1675.6081-.2989.1701-.1288.3247-.2835.4638-.4638.1443-.1778.268-.3762.3711-.5978h.4123Z"/><circle class="b" cx="42.0319" cy="26.8225" r="3.0319"/></svg>