<?xml version="1.0" encoding="UTF-8"?><svg id="a" xmlns="http://www.w3.org/2000/svg" width="229.1702" height="95.4876" viewBox="0 0 229.1702 95.4876"><defs><style>.b{fill:#fff;stroke-width:0px;}</style></defs><path class="b" d="m48.2983,61.3598c-2.5796-1.518-5.545-2.4737-8.407-3.4975-1.518-.5648-3.1444-.812-4.7331-1.2003.0353-.353.0706-.7061.1412-1.0591.8473-2.9326,3.0032-4.8062,5.6156-5.9712,4.4506-1.9769,8.9719-3.8152,13.4931-5.5803,2.7914-1.0616,5.371-2.4031,7.348-4.6625.6001-.7086,1.0969-1.5205,1.6617-2.2972v7.8775c-2.9679.6001-5.724.8473-8.3011,1.7298-2.5443.8851-4.8415,2.4031-7.2421,3.6387l.1412.2824h20.4881v-19.6383c-2.156,0-4.2388.0353-6.3595-.0353-.812-.1084-1.5886.3177-1.9416,1.0944-1.5886,2.9301-4.2035,5.1567-7.3127,6.2864-3.5328,1.3087-7.0302,2.6149-10.5252,3.9917-3.7093,1.4852-7.348,3.1091-10.1041,6.2183-4.8037,5.3332-3.4269,11.6574,3.215,14.2698,1.3415.5295,2.8267.8498,4.2035,1.3087,1.3062.3883,2.5418.8473,3.7799,1.4121,6.0746,3.1091,6.9571,8.9366,2.2241,13.7402-.6001-.0706-1.0944-.1059-1.5886-.1765-3.1444-.3883-6.3948-.3883-9.3602-1.2709-12.54-3.674-24.0914-14.8724-25.0118-29.813-.0706-1.3793-.7061-2.3325-2.1182-2.6502-2.2972-.4942-3.5328.7061-3.2857,3.3916,1.3062,13.3519,8.2658,23.1736,19.3937,30.1307,5.1567,3.2857,11.0926,5.1945,17.1671,5.5122l-2.7208,1.9769,3.7799,5.2979c4.0976-3.0713,9.3274-9.2896,11.2691-13.3519,3.0738-6.357,1.165-13.3519-4.9096-16.9553Z"/><path class="b" d="m56.4279,31.0905l-3.2504-.1765v-13.9899h-19.0734v14.0958h-15.8256v19.6761h8.407l3.4269-5.2651h-6.5713v-9.0425h16.0374v-14.1639h8.3011v14.6934c3.3563-.9532,7.1361-3.5328,8.5482-5.8274Z"/><path class="b" d="m6.4446,40.5238c1.8357.2471,3.1066-.7414,3.389-2.7208,1.8736-12.6812,9.2921-21.0176,20.6671-26.0331,2.8595-1.2734,6.0746-1.7676,9.1131-2.6149,1.518-.4236,2.4006-1.6945,2.1182-3.1797-.2824-1.4827-1.2709-2.1888-3.3916-2.1535-1.165.2471-2.9301.6354-4.6978,1.0591C18.3138,8.7667,6.6211,21.5538,4.324,36.9204c-.3177,2.0475.4942,3.3916,2.1207,3.6034Z"/><path class="b" d="m48.0562,9.1903c.3883.1059.812.1765,1.2003.2471,9.6426,1.8029,17.273,6.7831,22.9971,14.6959,2.9301,4.0623,4.839,8.5836,5.3332,13.6343.1059,1.3062.6001,2.6502,2.0501,2.6502,1.0238.0353,2.4359-.353,3.036-1.0944.6001-.7439.4942-2.1207.3177-3.1444-2.3653-12.7871-9.8191-21.8674-20.947-28.0831-3.9917-2.2619-8.4423-3.7093-12.9989-4.2388-2.0501-.0353-3.1091.7414-3.2504,2.1182-.1765,1.7323.5295,2.7561,2.2619,3.215Z"/><path class="b" d="m80.5169,45.2165c-1.6592-.0706-2.7183.9532-2.8948,2.8595-1.1675,12.2928-7.5951,21.0176-18.264,26.9182-.6707.3883-1.2003.9885-1.518,1.6945-.9532,1.9795-1.8029,4.0623-2.6502,6.0418,8.1952-2.5443,14.943-7.4186,20.2762-14.4135,4.4153-5.7568,7.0655-12.6812,7.701-19.9232.2118-1.9769-.8826-3.1066-2.6502-3.1772Z"/><path class="b" d="m107.0265,40.7457l.9153.3051c-.4312,1.7525-.7867,3.2529-1.0666,4.4985h-11.0951v-.6859c1.5508-1.3995,3.036-2.8847,4.4607-4.4607,2.0072-2.2896,3.0108-4.4128,3.0108-6.3696,0-.9658-.2522-1.7399-.7615-2.3249-.4841-.6102-1.1826-.9153-2.098-.9153-.812,0-1.513.2295-2.0955.6859-.585.4312-1.1448,1.0288-1.6794,1.7929l-.7993-.6481,1.7903-2.5922c1.1196-1.1448,2.504-1.7172,4.1581-1.7172,1.4222,0,2.6174.4438,3.5832,1.3339s1.4499,2.0728,1.4499,3.5479c0,1.0162-.2925,1.9946-.8775,2.9352-.5598.9406-1.5508,2.0854-2.9755,3.4319l-3.2024,3.0108h4.3094c.6354,0,1.0919-.0252,1.3718-.0756.2799-.0756.522-.2295.7262-.4564.2269-.2295.5195-.6607.875-1.2961Z"/><path class="b" d="m120.0683,45.5494h-8.5407v-.9532c.7615-.0504,1.3087-.1538,1.639-.3051.3555-.1538.585-.3808.6859-.6859.1009-.3303.1538-.8397.1538-1.5256v-9.7611c0-.7111-.0656-1.1574-.1916-1.3339-.1261-.2043-.4564-.3177-.991-.3455l-1.4877-.0756v-.8372c1.4499-.2295,3.558-.701,6.3292-1.4121v13.7655c0,.6859.0378,1.1952.116,1.5256.1009.3051.3177.5321.6481.6859.3555.1513.9027.2547,1.639.3051v.9532Z"/><path class="b" d="m131.8492,36.817l-.8372.2673c-.8397-1.8307-1.8181-2.746-2.9377-2.746-.3808,0-.7111.1286-.991.3808-.2799.2547-.4186.5976-.4186,1.0313,0,.8372.6859,1.5256,2.0576,2.0576,1.2709.5346,2.1988,1.0944,2.7839,1.6794.6102.5825.9153,1.3591.9153,2.3249,0,1.2709-.5068,2.2619-1.5256,2.973-.991.7136-2.1333,1.0692-3.4319,1.0692-.6607,0-1.3339-.1009-2.0198-.3051-.6607-.179-1.1448-.3808-1.4499-.6102-.2017-.7615-.3429-2.0072-.4186-3.737l.8019-.0378c.3555.991.8498,1.8433,1.4852,2.5544s1.3491,1.0666,2.1358,1.0666c.4312,0,.7893-.1261,1.0666-.3808.2799-.2799.4211-.6354.4211-1.0666,0-.4337-.1412-.8145-.4211-1.1448-.2774-.3303-.8246-.6859-1.639-1.0666-1.0162-.4589-1.8685-.9784-2.5544-1.5634-.6859-.6102-1.0288-1.4373-1.0288-2.4787,0-1.0944.4186-2.0072,1.2583-2.746.8397-.7363,1.9694-1.1045,3.3941-1.1045h.2269c.8145,0,1.629.1513,2.4409.4564.1286.2799.2673.7893.4186,1.5256.1538.7363.2421,1.2709.2673,1.6012Z"/><path class="b" d="m142.5635,44.5205l-2.2114,1.0288c-.4312.2043-.7867.3051-1.0666.3051-2.2871,0-3.4319-1.1448-3.4319-3.4319v-7.5119h-1.755l-.1513-.3808.8019-.9532h1.1045v-2.0223l3.1268-2.1736.4186.1916v4.0043h2.6704c.1261.1261.1891.3051.1891.5321,0,.3833-.1261.6506-.3808.8019h-2.4787v6.6343c0,1.5508.5094,2.3274,1.5256,2.3274.406,0,.8775-.116,1.4121-.3455l.2269.9935Z"/><path class="b" d="m105.3169,59.7359l.5774.2446c-.2975.9935-.6077,1.8609-.9355,2.6023-1.4071.2824-2.446.4236-3.1117.4236-1.3793,0-2.5443-.2522-3.4924-.7565-.9355-.5195-1.6315-1.1776-2.0904-1.9795-.4463-.8145-.6682-1.6693-.6682-2.5569,0-1.6315.6001-2.9604,1.8004-3.9816,1.2028-1.0238,2.7889-1.5357,4.7608-1.5357.5774,0,1.0666.0378,1.4676.111.4161.0756.9431.1866,1.5785.3329.2093,1.2759.3354,2.1585.3782,2.6477l-.6001.0883c-.237-.8876-.638-1.518-1.2003-1.8887-.5623-.3858-1.2078-.58-1.9341-.58-1.1877,0-2.1131.4388-2.7813,1.3138s-1.0011,1.9341-1.0011,3.1797c0,1.4524.3707,2.625,1.112,3.5151s1.6895,1.3339,2.8469,1.3339c.6985,0,1.3138-.2068,1.8458-.6228.5346-.4161,1.0162-1.0465,1.4474-1.8912Z"/><path class="b" d="m112.7228,60.7824l.2673.3782c-.4463.6531-.9355,1.112-1.4676,1.3793-.5346.2673-1.0162.3984-1.4474.3984-1.0364,0-1.8534-.3253-2.446-.9784-.5926-.6506-.8901-1.46-.8901-2.4233,0-.5497.1034-1.0666.3127-1.5584.2068-.4892.4968-.9103.8674-1.2658.8145-.7565,1.6441-1.1347,2.4913-1.1347h.0202c.7136,0,1.3289.2597,1.8458.7792.5195.5169.7792,1.1045.7792,1.755-.0303.3429-.1916.527-.4892.5573-.6531.0883-1.9341.1765-3.848.2673.0454.8296.2673,1.46.6682,1.8912.4009.4287.9027.643,1.513.643.6657,0,1.2734-.2295,1.8231-.6884Zm-2.6477-4.5591h-.0227c-.3102,0-.585.1765-.822.5321-.237.3429-.3858.817-.4438,1.4247.4287,0,1.0742-.0151,1.9341-.0454.237,0,.348-.0958.3329-.2875v-.0681c0-.4161-.0883-.7792-.2673-1.0893-.1765-.3127-.4135-.4665-.7111-.4665Z"/><path class="b" d="m122.6201,62.7619h-3.7597v-.5119c.3278-.0303.5346-.1185.6228-.2673.0908-.1488.1336-.5043.1336-1.0666v-2.625c0-.5195-.111-.8977-.3329-1.1347-.2068-.237-.4741-.3555-.8019-.3555-.3555,0-.754.1639-1.2003.4892v3.8026c0,.4892.0378.7943.111.9128.0756.1034.29.1866.6455.2446v.5119h-3.8934v-.5119c.4892-.058.7867-.1488.8901-.2673.1185-.1185.179-.4514.179-1.0011v-3.2251c0-.4589-.0454-.7414-.1336-.8447-.0756-.1185-.3202-.2219-.7338-.3102v-.4463c1.0086-.1639,1.987-.3707,2.9352-.6228v1.2028c.3127-.2396.6455-.4766,1.0011-.7136.2673-.1614.4892-.2749.6682-.3329.1765-.0731.3707-.111.5774-.111.6682,0,1.1852.2295,1.5584.6884.3833.4463.5774,1.0767.5774,1.8912v2.9352c0,.4766.0504.7792.1563.9128.1185.1185.3833.1992.7993.2446v.5119Z"/><path class="b" d="m128.2912,62.1617l-1.2885.6001c-.2522.1185-.4589.1765-.6228.1765-1.3339,0-2.0022-.6657-2.0022-1.9996v-4.3826h-1.0238l-.0883-.2219.4665-.5573h.6455v-1.1776l1.8231-1.2684.2446.111v2.335h1.5584c.0731.0756.111.179.111.3127,0,.2219-.0756.3782-.2219.4665h-1.4474v3.8707c0,.9027.2975,1.3566.8901,1.3566.237,0,.5119-.0681.822-.2017l.1336.58Z"/><path class="b" d="m137.3892,61.8717v.5119c-.4892.0731-.9557.1563-1.402.2446-.4589.0883-.9784.1916-1.5558.3102l-.1336-.111v-.9557c-.3555.2824-.6304.4816-.822.6001-.5195.3127-.9859.4665-1.402.4665-.6682,0-1.1877-.1992-1.5584-.6001-.3707-.3984-.5548-.9633-.5548-1.6895v-3.1797c0-.3581-.0378-.5875-.111-.6909-.0605-.1185-.2017-.2068-.4236-.2673l-.3782-.111v-.4665c.4615-.0303.928-.0681,1.402-.111.5623-.0303,1.0969-.0807,1.6012-.1563-.0303.4312-.0454,1.2154-.0454,2.3577v2.3123c0,.4766.1059.8321.3127,1.0692.2219.2219.4892.3329.8019.3329.4741,0,.8674-.1563,1.1776-.4665v-3.8026c0-.3707-.0378-.6102-.111-.7136-.0605-.1185-.1992-.1992-.4236-.2446l-.5321-.111v-.4665c.5623-.0303,1.112-.0681,1.6441-.111.5648-.0303,1.0616-.0807,1.4903-.1563v5.1163c0,.4161.0378.6884.111.822.0756.1185.2673.2017.58.2446l.3329.0227Z"/><path class="b" d="m141.4364,57.2446h.0454c.2975-.5043.6001-.9027.9128-1.2003.3253-.3102.6304-.4665.9103-.4665.3127,0,.5724.0958.7792.2875.2068.1942.3127.4236.3127.6909,0,.2824-.0756.5346-.2244.7565-.1463.2068-.3329.348-.5548.4211-.0756.0151-.1412.0227-.1992.0227-.1059,0-.2017-.0303-.29-.0883-.2673-.2219-.5195-.3329-.7565-.3329-.3707,0-.6834.2875-.9355.8674v2.8898c0,.3581.0227.6027.0681.7338.058.1336.1715.232.3329.29.179.0454.4968.0883.9582.1336v.5119h-4.4506v-.5119c.4615-.058.7489-.1488.8674-.2673s.179-.4135.179-.8901v-3.447c0-.3858-.053-.6304-.1563-.7338-.0883-.1185-.3253-.2219-.7111-.3102v-.4463c.9935-.1185,1.9643-.3177,2.9125-.6001v1.6895Z"/><path class="b" d="m152.8265,55.777v.4892c-.3858.0756-.6607.179-.8246.3127-.1463.1336-.3253.4135-.5321.8447-.3707.7565-1.0011,2.2165-1.8912,4.3826-.817,1.8685-1.3944,3.3588-1.7349,4.4708-.1185.2799-.3202.4211-.6001.4211-.2522,0-.5043-.1034-.7565-.3102-.2522-.2093-.3782-.4463-.3782-.7136,0-.2648.1488-.4741.4438-.6228.6228-.3102,1.0767-.7111,1.3566-1.2003.1336-.1765.237-.3858.3127-.6228.0303-.0883.0429-.1765.0429-.2673,0-.1614-.0353-.3253-.111-.4892-.933-2.5342-1.6012-4.2766-2.0022-5.2273-.1463-.3253-.3026-.5472-.4665-.6657-.1488-.1336-.4211-.237-.822-.3127v-.4892h4.0245v.4892c-.2799.0605-.4741.1185-.5774.179-.0883.058-.1336.1412-.1336.2446,0,.0731.0151.1689.0454.29l1.2457,3.5126c.237-.5321.6455-1.6466,1.223-3.3361.0454-.1185.0656-.2219.0656-.3102,0-.2673-.2723-.4615-.822-.58v-.4892h2.8923Z"/><path class="b" d="m170.1524,62.7619h-4.8037v-.5573c.5472-.0429.8952-.1463,1.0439-.3102.1639-.179.2446-.5648.2446-1.1574v-.2875l-.0202-6.0292h-.0908l-3.6462,8.2532h-.4463l-3.3588-8.1423h-.0656l-.2219,4.1607c-.0303.5321-.0454.9935-.0454,1.3793,0,.4741.0227.875.0656,1.2003.0454.3404.1563.5699.3354.6884.1916.1059.5699.1866,1.1347.2446v.5573h-3.9388v-.5573c.4463-.0429.764-.1336.9582-.2648.2068-.1488.3404-.3707.3984-.6682.1185-.6834.232-1.697.3354-3.0486l.2446-3.0461c.0277-.3858.0429-.6884.0429-.9128,0-.4741-.0958-.7842-.2875-.933-.179-.1639-.5573-.2749-1.1347-.3329v-.5573h3.3588l3.1797,6.9849,3.2705-6.9849h3.2478v.5573c-.6077.058-.9859.1614-1.1347.3102-.1488.1336-.2219.4665-.2219,1.0011v.3127l.1765,5.8274c-.0151.7111.053,1.17.2017,1.3768.1614.2093.5548.3354,1.1776.3782v.5573Z"/><path class="b" d="m177.0263,60.7824l.2648.3782c-.4438.6531-.933,1.112-1.4676,1.3793-.5321.2673-1.0162.3984-1.4449.3984-1.0389,0-1.8534-.3253-2.446-.9784-.5951-.6506-.8901-1.46-.8901-2.4233,0-.5497.1034-1.0666.3102-1.5584.2093-.4892.4968-.9103.8674-1.2658.817-.7565,1.6466-1.1347,2.4913-1.1347h.0227c.7111,0,1.3264.2597,1.8458.7792.5195.5169.7792,1.1045.7792,1.755-.0303.3429-.1942.527-.4892.5573-.6531.0883-1.9366.1765-3.848.2673.0454.8296.2673,1.46.6657,1.8912.4009.4287.9053.643,1.513.643.6682,0,1.2759-.2295,1.8256-.6884Zm-2.6477-4.5591h-.0227c-.3102,0-.585.1765-.822.5321-.237.3429-.3858.817-.4463,1.4247.4312,0,1.0767-.0151,1.9366-.0454.237,0,.348-.0958.3329-.2875v-.0681c0-.4161-.0883-.7792-.2673-1.0893-.1765-.3127-.4135-.4665-.7111-.4665Z"/><path class="b" d="m186.611,61.849v.4892c-.2068.0454-.6506.1261-1.3339.2446-.6808.1059-1.2961.237-1.8458.4009v-.9557l-1.0238.6455c-.2824.1765-.5396.2648-.7792.2648-.4892,0-.991-.1236-1.5104-.3757-.5195-.2673-.9582-.6607-1.3138-1.1801-.3404-.5346-.5119-1.1725-.5119-1.9139,0-1.0666.4312-1.9795,1.2911-2.7334.8599-.7716,1.9215-1.1574,3.1797-1.1574.1336,0,.3555.0227.6682.0656v-1.9568c0-.4009-.0605-.6531-.179-.7565-.1185-.1185-.4211-.2143-.9103-.29v-.4892c1.2885-.1463,2.335-.3329,3.1344-.5548v9.1408c0,.4615.0454.7414.1336.8447.0908.1059.3202.179.6909.2244l.3102.0429Zm-3.1797-.3782v-4.4027c-.2673-.5346-.6758-.8019-1.223-.8019-.179,0-.3934.0832-.6455.2446-.2522.1488-.4816.4312-.6884.8447-.1942.4161-.29.9809-.29,1.692,0,.8901.2068,1.5634.6228,2.0249.4161.4438.8447.6657,1.2911.6657.3253,0,.6354-.0883.933-.2673Z"/><path class="b" d="m189.5688,54.5313c-.295,0-.5548-.1034-.7767-.3102-.2219-.2219-.3354-.4816-.3354-.7792,0-.3253.1135-.5926.3354-.8019.2219-.2219.4892-.3329.7993-.3329.3278,0,.6001.111.8246.3329.2219.2093.3329.4766.3329.8019,0,.2975-.111.5573-.3329.7792-.2244.2068-.5043.3102-.8473.3102Zm2.2468,8.2305h-4.1581v-.5119c.4589-.0454.7489-.1336.8674-.2673.1185-.1488.1765-.5043.1765-1.0666v-3.0688c0-.5195-.058-.8473-.1765-.9809-.1034-.1311-.3404-.2219-.7111-.2648v-.469c1.0969-.1336,2.0753-.3177,2.9352-.5548v5.3382c0,.4009.0227.6808.0656.8447.0454.1488.1336.2522.2673.3102.1336.0605.3782.121.7338.179v.5119Z"/><path class="b" d="m202.2247,59.7359l.58.2446c-.2975.9935-.6077,1.8609-.9355,2.6023-1.4071.2824-2.446.4236-3.1142.4236-1.3768,0-2.5418-.2522-3.4899-.7565-.9355-.5195-1.6315-1.1776-2.0929-1.9795-.4438-.8145-.6657-1.6693-.6657-2.5569,0-1.6315.6001-2.9604,1.8004-3.9816,1.2028-1.0238,2.7889-1.5357,4.7608-1.5357.5774,0,1.0666.0378,1.4676.111.4161.0756.9431.1866,1.5785.3329.2093,1.2759.3354,2.1585.3782,2.6477l-.6001.0883c-.237-.8876-.638-1.518-1.2003-1.8887-.5648-.3858-1.2078-.58-1.9366-.58-1.1852,0-2.1131.4388-2.7788,1.3138-.6682.875-1.0011,1.9341-1.0011,3.1797,0,1.4524.3707,2.625,1.112,3.5151s1.6895,1.3339,2.8469,1.3339c.696,0,1.3112-.2068,1.8458-.6228s1.0162-1.0465,1.4449-1.8912Z"/><path class="b" d="m210.8562,62.0281l-1.7576.9103c-.4009,0-.7338-.1034-1.0011-.3102-.1916-.1916-.3253-.3934-.4009-.6001-.7565.4741-1.2003.7414-1.3339.7993-.1185.0756-.237.111-.3555.111-.6531,0-1.1776-.2068-1.5785-.6203-.4009-.4161-.6001-.8826-.6001-1.402,0-.4161.0958-.7262.2875-.9355.1942-.2219.5119-.4135.9582-.5774,1.0061-.3555,1.6441-.585,1.9114-.6884.2673-.1059.4816-.2244.6455-.3581v-.3984c0-.5195-.0883-.9204-.2673-1.2028-.1639-.2799-.4085-.4211-.7338-.4211-.1916,0-.3631.0958-.5119.2875-.1488.179-.3026.5497-.4665,1.112-.1034.3581-.3404.5346-.7111.5346-.2093,0-.4236-.0807-.6455-.2446-.2219-.1765-.3354-.3631-.3354-.5548,0-.1488.0454-.2749.1336-.3782.0908-.1059.2396-.232.4463-.3782.7414-.5043,1.6239-.8826,2.6477-1.1347.6354,0,1.1549.1412,1.5558.4211.3404.2522.5699.5497.6884.8901.1336.3429.2017.7716.2017,1.2911v2.5342c0,.6228.1689.9355.5119.9355.1463,0,.3329-.0454.5548-.1336l.1563.5119Zm-3.2251-.5346v-2.5342c-.4312.2522-.7262.4211-.8901.5094-.2673.121-.4589.2673-.5774.4463-.1185.1639-.179.3707-.179.6228,0,.4161.1034.7262.3127.933.2068.1942.4211.29.643.29.1942,0,.4236-.0883.6909-.2673Z"/><path class="b" d="m214.8378,57.2446h.0429c.2975-.5043.6027-.9027.9128-1.2003.3253-.3102.6304-.4665.9128-.4665.3102,0,.5699.0958.7767.2875.2093.1942.3127.4236.3127.6909,0,.2824-.0731.5346-.2219.7565-.1488.2068-.3354.348-.5573.4211-.0731.0151-.1412.0227-.1992.0227-.1034,0-.2017-.0303-.29-.0883-.2673-.2219-.5195-.3329-.7565-.3329-.3707,0-.6808.2875-.933.8674v2.8898c0,.3581.0227.6027.0656.7338.0605.1336.1715.232.3354.29.1765.0454.4968.0883.9557.1336v.5119h-4.4481v-.5119c.4589-.058.7489-.1488.8674-.2673s.1765-.4135.1765-.8901v-3.447c0-.3858-.0504-.6304-.1538-.7338-.0908-.1185-.3278-.2219-.7136-.3102v-.4463c.9935-.1185,1.9643-.3177,2.915-.6001v1.6895Z"/><path class="b" d="m224.5788,60.7824l.2673.3782c-.4438.6531-.933,1.112-1.4676,1.3793s-1.0162.3984-1.4449.3984c-1.0389,0-1.8534-.3253-2.4485-.9784-.5926-.6506-.8876-1.46-.8876-2.4233,0-.5497.1034-1.0666.3102-1.5584.2068-.4892.4968-.9103.8674-1.2658.8145-.7565,1.6466-1.1347,2.4913-1.1347h.0227c.7111,0,1.3264.2597,1.8458.7792.5195.5169.7792,1.1045.7792,1.755-.0303.3429-.1942.527-.4892.5573-.6531.0883-1.9366.1765-3.848.2673.0429.8296.2648,1.46.6657,1.8912.4009.4287.9053.643,1.513.643.6682,0,1.2759-.2295,1.8231-.6884Zm-2.6452-4.5591h-.0227c-.3127,0-.585.1765-.8246.5321-.237.3429-.3833.817-.4438,1.4247.4312,0,1.0742-.0151,1.9341-.0454.2396,0,.3505-.0958.3354-.2875v-.0681c0-.4161-.0908-.7792-.2673-1.0893-.179-.3127-.4161-.4665-.7111-.4665Z"/><path class="b" d="m99.9454,71.6291c.1059.0202.2143.0403.3228.0605.1059.0151.2118.0202.3127.0202.2068,0,.4035-.0303.585-.0908.1866-.0605.348-.1513.4841-.2723.1412-.1261.2471-.2849.3228-.4741.0807-.1942.121-.4186.121-.6758,0-.2471-.0403-.464-.121-.6455s-.1916-.3329-.3329-.4539c-.1362-.121-.2975-.2068-.4841-.2622-.1816-.0605-.3782-.0908-.585-.0908-.1009,0-.2068.0076-.3127.0202-.1009.0151-.2068.0353-.3127.0605v2.804Zm0,1.8761c0,.1362.0126.2496.0403.3429.0328.0958.0933.1715.1816.232.0857.0555.2042.0958.353.121.1538.0277.348.0403.585.0403v.3934h-3.379v-.3934c.1816,0,.3253-.0101.4337-.0303.1059-.0202.1916-.0504.2522-.0908.0656-.0454.111-.1034.1311-.1715.0202-.0731.0303-.1639.0303-.2723v-4.2363c0-.121-.0177-.2169-.0504-.2925-.0277-.0731-.0782-.1311-.1513-.1715-.0681-.0403-.1589-.0656-.2723-.0807-.116-.0202-.2597-.0303-.4337-.0303v-.3934c.2017-.0202.4085-.0353.6254-.0504.2143-.0126.4262-.0227.6354-.0303.2143-.0126.4186-.0227.6153-.0303.2017-.0126.3858-.0202.5548-.0202.1664-.005.3152-.0126.4438-.0202.1261-.005.2269-.0101.3026-.0101.2269.0076.4539.0277.6758.0605.2219.0277.4337.0756.6354.1412.2017.0605.3858.1412.5548.2421.174.1009.3253.2219.4539.3631.1261.1412.2244.3102.2925.5043.0731.1891.111.4009.111.6354,0,.3102-.0706.5825-.2118.817-.1412.237-.3329.4337-.5749.5951s-.522.2824-.8372.3631c-.3177.0807-.6455.121-.9885.121-.1614,0-.3303-.005-.5043-.0202-.1765-.0202-.3429-.0504-.5043-.0908v1.4625Z"/><path class="b" d="m108.7581,72.083c0,.2975.0303.58.0908.8473.0656.2622.1563.4993.2723.7061.121.2093.2572.3732.4135.4942.1614.121.3379.1816.5346.1816.5976,0,.8977-.4085.8977-1.2305,0-.3076-.0353-.5951-.1009-.8573-.0605-.2673-.1488-.4993-.2622-.696-.116-.1942-.2522-.3455-.4135-.4539-.1563-.1059-.3278-.1614-.5144-.1614-.6128,0-.9179.3908-.9179,1.17Zm-1.3011.5951c0-.3026.0605-.5875.1816-.8573.121-.2673.2875-.4993.5043-.696.2219-.2017.4841-.3581.7867-.4741.3076-.1135.6455-.1715,1.0086-.1715.3354,0,.6455.0504.928.1513.2875.1009.5371.2421.7464.4236.2068.1816.3682.4009.4841.6556.121.2572.1816.5321.1816.8271,0,.3026-.0656.5901-.1916.8573-.121.2698-.2925.5043-.5144.7061-.2169.1967-.4791.3505-.7867.464-.3026.1135-.6354.1715-.9986.1715-.3228,0-.6304-.0479-.9179-.1412-.2824-.0933-.5295-.2269-.7363-.4035-.2093-.1816-.3732-.3984-.4942-.6556-.121-.2547-.1816-.5396-.1816-.8573Z"/><path class="b" d="m117.8172,68.0081v5.6181c0,.2219.0504.3908.1513.5043.1009.116.2471.1765.4438.1816v.3228h-2.4712v-.3228h.111c.2017,0,.3429-.0504.4236-.1513.0857-.1059.1311-.2849.1311-.5346v-4.0749c0-.1866-.0101-.3076-.0303-.3631-.0151-.053-.0403-.1009-.0807-.1412s-.0908-.0731-.1513-.1009c-.0605-.0252-.1286-.0504-.2017-.0706-.0756-.0252-.1513-.053-.232-.0807v-.2925c.0328-.005.0933-.0227.1816-.0504.0857-.0252.1866-.0555.3026-.0908.121-.0328.2446-.0656.3732-.1009.1336-.0403.2572-.0756.3732-.111.1135-.0328.2143-.063.3026-.0908.0933-.0252.1563-.0429.1916-.0504h.1816Z"/><path class="b" d="m124.0348,74.534c-.0151-.0126-.0403-.063-.0807-.1513-.0403-.0857-.0958-.1916-.1614-.3127-.0605-.1261-.1286-.2673-.2017-.4236-.0756-.1614-.1513-.3228-.232-.4841s-.1614-.3177-.2421-.4741c-.0756-.1614-.1412-.3026-.2017-.4236-.0605-.1261-.111-.232-.1513-.3127s-.0656-.1261-.0706-.1412c-.0756-.1463-.1387-.2749-.1916-.3833-.0555-.1059-.1009-.1816-.1412-.2219-.0756-.0857-.1664-.1538-.2723-.2017-.1084-.053-.2194-.0832-.3329-.0908v-.3228h2.5317v.3228c-.1816.0076-.3102.0353-.3833.0807-.0756.0403-.111.1084-.111.2017,0,.0555.0126.1261.0403.2118.0328.0807.0731.1715.121.2723.053.1009.1034.2068.1513.3127.053.1084.1034.2093.1513.3026.0731.1563.1463.3102.2219.464.0731.1488.1437.2925.2118.4337.0202-.0328.0504-.0857.0908-.1614.0403-.0807.0832-.1715.1311-.2723.053-.1059.1059-.2169.1614-.3329.0605-.1135.1135-.2219.1614-.3228.053-.1009.0958-.1866.1311-.2622.0403-.0731.0656-.1236.0807-.1513.0605-.1336.0908-.2547.0908-.3631,0-.1336-.0555-.2345-.1614-.3026-.1084-.0656-.2597-.1034-.4539-.111v-.3228h1.8559v.3228c-.116.0277-.2118.058-.2925.0908-.0756.0353-.1412.0807-.2017.1412-.0605.0555-.1185.1286-.1715.2219-.0555.0883-.116.1992-.1816.3329-.0151.0202-.0555.1009-.121.2421-.0681.1362-.1513.3076-.2522.5144-.1009.2093-.2194.4438-.353.7061-.1286.2572-.2597.5195-.3934.7867-.1286.2698-.2572.5346-.3833.7968-.1286.2622-.2421.4968-.3429.7061-.1009.2068-.1866.3782-.2522.5144-.0681.1412-.1084.2219-.121.2421-.116.2269-.2522.406-.4135.5346-.1563.1261-.3202.1916-.4942.1916-.0883,0-.1715-.0151-.2522-.0403-.0756-.0277-.1387-.0681-.1916-.121-.0555-.0555-.0983-.116-.1311-.1816-.0277-.0681-.0403-.1463-.0403-.232,0-.1689.0429-.3026.1311-.4035.0857-.0958.2068-.1513.3631-.1715.0202,0,.0353-.005.0504-.0101.0126-.0076.0252-.0151.0403-.0202.1135-.0151.2143-.0353.3026-.0605.0933-.0202.1816-.058.2622-.111.0857-.0479.1715-.121.2522-.2219.0807-.0958.1614-.2269.2421-.3934l.2017-.4337Z"/><path class="b" d="m142.2891,72.8496c-.0479.29-.121.5926-.2219.9078-.0958.3102-.2093.6128-.3429.9078-.1488-.0454-.3429-.0706-.585-.0706-.0353,0-.0908.0076-.1715.0202-.0807.0076-.1715.0177-.2723.0303-.1009.0126-.2093.0252-.3228.0403-.116.0202-.2295.0353-.3429.0504-.116.0126-.2219.0227-.3228.0303-.1009.0126-.1891.0202-.2622.0202-.3177,0-.6254-.0378-.928-.111-.2975-.0656-.58-.1639-.8473-.2925-.2774-.1412-.5321-.3127-.7666-.5144-.237-.2068-.4337-.4337-.5951-.6758-.1488-.2345-.2673-.4892-.353-.7666-.0807-.2824-.121-.5674-.121-.8573,0-.9078.3656-1.6743,1.0994-2.2997.3682-.3152.7767-.5497,1.2205-.7061.4438-.1614.933-.2421,1.4726-.2421.1614,0,.3177.0151.4741.0403.1614.0202.3127.0479.4539.0807.1463.0277.2824.0605.4035.1009.121.0353.2269.0681.3228.1009.0605.0277.1135.0504.1614.0706.0454.0151.0731.0202.0807.0202.0807,0,.1437-.0328.1916-.1009h.2622c0,.0277.0025.0857.0101.1715.005.0883.0101.1916.0101.3127.005.116.0126.2396.0202.3732.0126.1286.0227.2522.0303.3732.005.121.0101.2295.0101.3228.005.0883.0101.1488.0101.1816h-.3934c-.1084-.3228-.2597-.5976-.4539-.8271-.1891-.2345-.4035-.4085-.6455-.5245-.1362-.0605-.2774-.1034-.4236-.1311-.1412-.0328-.29-.0504-.4438-.0504-.7061,0-1.281.2421-1.7248.7262-.4388.4993-.6556,1.1347-.6556,1.9063,0,.2572.0227.4993.0706.7262.053.2295.1311.4488.232.6556.1059.2219.237.4211.3934.5951.1614.1765.3379.3278.5346.4539.1866.1362.3858.232.5951.2925.2143.0605.4362.0908.6657.0908.2269,0,.4463-.0328.6556-.1009.2068-.0656.406-.1639.5951-.2925.1664-.1261.3177-.2774.4539-.4539.1412-.174.2622-.3682.3631-.585h.4035Z"/><path class="b" d="m147.782,68.0081v5.6181c0,.2219.0504.3908.1513.5043.1009.116.2471.1765.4438.1816v.3228h-2.4712v-.3228h.111c.2017,0,.3429-.0504.4236-.1513.0857-.1059.1311-.2849.1311-.5346v-4.0749c0-.1866-.0101-.3076-.0303-.3631-.0151-.053-.0403-.1009-.0807-.1412s-.0908-.0731-.1513-.1009c-.0605-.0252-.1286-.0504-.2017-.0706-.0756-.0252-.1513-.053-.232-.0807v-.2925c.0328-.005.0933-.0227.1816-.0504.0857-.0252.1866-.0555.3026-.0908.121-.0328.2446-.0656.3732-.1009.1336-.0403.2572-.0756.3732-.111.1135-.0328.2143-.063.3026-.0908.0933-.0252.1563-.0429.1916-.0504h.1816Z"/><path class="b" d="m153.0919,68.1291c.1059,0,.2068.0177.3026.0504.0933.0353.174.0807.2421.1412.0731.0555.1311.1261.1715.2118.0403.0807.0605.1715.0605.2723s-.0202.1916-.0605.2723-.0983.1513-.1715.2118c-.0756.0605-.1589.1084-.2522.1412-.0958.0353-.1916.0504-.2925.0504-.1084,0-.2118-.0151-.3127-.0504-.0958-.0328-.179-.0807-.2522-.1412-.0756-.0605-.1362-.1311-.1816-.2118-.0403-.0857-.0605-.1765-.0605-.2723,0-.0933.0227-.1816.0706-.2622.0454-.0807.1059-.1513.1816-.2118.0731-.0656.1563-.116.2522-.1513.1009-.0328.2017-.0504.3026-.0504Zm1.2507,6.5057h-2.4813v-.3228h.1009c.2017,0,.3429-.0504.4236-.1513.0857-.1059.1311-.2849.1311-.5346v-1.9063c0-.0731-.0101-.1336-.0303-.1816-.0202-.053-.0555-.0958-.1009-.1311-.0479-.0403-.116-.0756-.2017-.111-.0807-.0328-.1891-.0731-.3228-.121v-.2421c.2673-.0857.5497-.1816.8473-.2824.295-.1009.5774-.1942.8473-.2824h.1816v3.3184c0,.2017.0504.3581.1513.464.1059.1009.2572.1563.4539.1614v.3228Z"/><path class="b" d="m162.6969,73.7271c0,.1084.0101.1992.0303.2723.0202.0681.0504.1261.0908.1715.0454.0479.1034.0807.1715.1009.0731.0202.1614.0353.2622.0403v.3228h-2.3501v-.3228c.1059-.0126.1942-.0403.2622-.0807.0731-.0454.1336-.1135.1816-.2017.0454-.0857.0807-.1967.1009-.3329.0202-.1412.0303-.3076.0303-.5043v-.8573c0-.7262-.2017-1.0893-.6052-1.0893-.1412,0-.3026.0378-.4841.111-.1765.0756-.3631.1816-.5648.3228v1.9971c0,.4236.1942.6354.585.6354h.0908v.3228h-2.5115v-.3228h.0605c.2017,0,.3455-.053.4337-.1614.0857-.1059.1311-.2824.1311-.5245v-1.9265c0-.1009-.0403-.1866-.121-.2622-.0807-.0731-.1967-.1336-.3429-.1816-.0076-.005-.0202-.0126-.0403-.0202-.0151-.005-.0252-.005-.0303,0-.0151-.005-.0353-.0126-.0605-.0202-.0202-.0126-.0479-.0227-.0807-.0303v-.2421c.0328-.005.0933-.0252.1816-.0605.0857-.0328.1866-.0656.3026-.1009.1135-.0403.2345-.0807.3631-.121.1336-.0454.2572-.0908.3732-.1311.1135-.0403.2143-.0731.3026-.1009.0857-.0328.1437-.053.1715-.0605h.1916v.8775c.3883-.2547.7313-.4463,1.0288-.5749.3026-.1261.5674-.1916.7968-.1916.3757,0,.6455.1412.8069.4236.1614.2774.2421.7035.2421,1.281v1.5432Z"/><path class="b" d="m168.024,68.1291c.1059,0,.2068.0177.3026.0504.0933.0353.174.0807.2421.1412.0731.0555.1311.1261.1715.2118.0403.0807.0605.1715.0605.2723s-.0202.1916-.0605.2723-.0983.1513-.1715.2118c-.0756.0605-.1589.1084-.2522.1412-.0958.0353-.1916.0504-.2925.0504-.1084,0-.2118-.0151-.3127-.0504-.0958-.0328-.179-.0807-.2522-.1412-.0756-.0605-.1362-.1311-.1816-.2118-.0403-.0857-.0605-.1765-.0605-.2723,0-.0933.0227-.1816.0706-.2622.0454-.0807.1059-.1513.1816-.2118.0731-.0656.1563-.116.2522-.1513.1009-.0328.2017-.0504.3026-.0504Zm1.2507,6.5057h-2.4813v-.3228h.1009c.2017,0,.3429-.0504.4236-.1513.0857-.1059.1311-.2849.1311-.5346v-1.9063c0-.0731-.0101-.1336-.0303-.1816-.0202-.053-.0555-.0958-.1009-.1311-.0479-.0403-.116-.0756-.2017-.111-.0807-.0328-.1891-.0731-.3228-.121v-.2421c.2673-.0857.5497-.1816.8473-.2824.295-.1009.5774-.1942.8473-.2824h.1816v3.3184c0,.2017.0504.3581.1513.464.1059.1009.2572.1563.4539.1614v.3228Z"/><path class="b" d="m177.2659,73.6767c-.237.3429-.5245.6052-.8674.7867s-.7313.2723-1.1599.2723c-.8347,0-1.4398-.3127-1.8156-.938-.0883-.1538-.1563-.3127-.2017-.4741-.0403-.1664-.0605-.348-.0605-.5447,0-.4287.111-.822.3329-1.1801.1135-.1664.2471-.3177.4035-.4539.1538-.1412.3278-.2622.5245-.3631.3959-.2017.8296-.3026,1.3011-.3026.2017,0,.3934.0202.5749.0605.1816.0353.3379.0883.4741.1614.1336.0756.2421.1664.3228.2723.0807.1009.121.2194.121.353,0,.3303-.1689.4942-.5043.4942-.2496,0-.4993-.1463-.7464-.4438-.2622-.2875-.4892-.4337-.6758-.4337-.121,0-.237.0403-.3429.121-.1009.0807-.1891.1891-.2622.3228-.0756.1362-.1311.2925-.1715.4741-.0353.1816-.0504.3732-.0504.5749,0,.2496.0252.4841.0807.7061.0605.2169.1437.4035.2522.5648.1059.1563.2345.2799.3833.3732.1538.0883.3278.1311.5245.1311.2143,0,.4287-.0555.6455-.1715.2143-.121.4186-.295.6153-.5245l.3026.1614Z"/><path class="b" d="m192.1533,72.9101c-.0151.0353-.0403.0958-.0807.1816-.0353.0883-.0756.1891-.121.3026-.0479.116-.0983.237-.1513.3631-.0555.1286-.1084.2522-.1614.3732-.0479.116-.0908.2194-.1311.3127-.0403.0883-.0681.1513-.0807.1916h-5.2954v-.3934h.1513c.1614,0,.2925-.0126.3934-.0403.1059-.0328.1916-.0807.2522-.1412.0656-.0605.1135-.1336.1412-.2219.0252-.0857.0403-.1916.0403-.3127v-3.9539c0-.469-.2597-.7061-.7767-.7061h-.1916v-.3934h3.3689v.3934h-.3026c-.4841,0-.7262.2295-.7262.6859v4.085c0,.0883.005.1614.0202.2219.0202.0555.0454.0983.0807.1311.0403.0353.0908.058.1513.0706.0656.0151.1463.0202.2421.0202h1.2608c.174,0,.3379-.0353.4942-.111.1538-.0731.2875-.1765.4035-.3127.0605-.0605.1437-.1563.2522-.2925.1059-.1336.2269-.2849.3631-.4539h.4035Z"/><path class="b" d="m196.9035,73.6464c0,.0883-.0177.1715-.0504.2522-.0353.0756-.0807.1412-.1412.2017-.0555.0555-.121.0983-.2017.1311-.0807.0277-.1664.0403-.2522.0403-.0958,0-.1816-.0126-.2622-.0403-.0756-.0328-.1412-.0807-.2017-.1412-.0555-.0605-.0983-.1261-.1311-.2017-.0353-.0807-.0504-.1664-.0504-.2622,0-.0933.0151-.1765.0504-.2522.0328-.0807.0807-.1463.1412-.2017.0605-.0605.1261-.1059.2017-.1412.0807-.0328.1639-.0504.2522-.0504.0857,0,.1715.0177.2522.0504.0807.0353.1463.0807.2017.1412.0605.0605.1059.1311.1412.2118.0328.0807.0504.1689.0504.2622Z"/><path class="b" d="m207.3915,72.9101c-.0151.0353-.0403.0958-.0807.1816-.0353.0883-.0756.1891-.121.3026-.0479.116-.0983.237-.1513.3631-.0555.1286-.1084.2522-.1614.3732-.0479.116-.0908.2194-.1311.3127-.0403.0883-.0681.1513-.0807.1916h-5.2954v-.3934h.1513c.1614,0,.2925-.0126.3934-.0403.1059-.0328.1916-.0807.2522-.1412.0656-.0605.1135-.1336.1412-.2219.0252-.0857.0403-.1916.0403-.3127v-3.9539c0-.469-.2597-.7061-.7767-.7061h-.1916v-.3934h3.3689v.3934h-.3026c-.4841,0-.7262.2295-.7262.6859v4.085c0,.0883.005.1614.0202.2219.0202.0555.0454.0983.0807.1311.0403.0353.0908.058.1513.0706.0656.0151.1463.0202.2421.0202h1.2608c.174,0,.3379-.0353.4942-.111.1538-.0731.2875-.1765.4035-.3127.0605-.0605.1437-.1563.2522-.2925.1059-.1336.2269-.2849.3631-.4539h.4035Z"/><path class="b" d="m212.1418,73.6464c0,.0883-.0177.1715-.0504.2522-.0353.0756-.0807.1412-.1412.2017-.0555.0555-.121.0983-.2017.1311-.0807.0277-.1664.0403-.2522.0403-.0958,0-.1816-.0126-.2622-.0403-.0756-.0328-.1412-.0807-.2017-.1412-.0555-.0605-.0983-.1261-.1311-.2017-.0353-.0807-.0504-.1664-.0504-.2622,0-.0933.0151-.1765.0504-.2522.0328-.0807.0807-.1463.1412-.2017.0605-.0605.1261-.1059.2017-.1412.0807-.0328.1639-.0504.2522-.0504.0857,0,.1715.0177.2522.0504.0807.0353.1463.0807.2017.1412.0605.0605.1059.1311.1412.2118.0328.0807.0504.1689.0504.2622Z"/><path class="b" d="m223.4266,72.8496c-.0479.29-.121.5926-.2219.9078-.0958.3102-.2093.6128-.3429.9078-.1488-.0454-.3429-.0706-.585-.0706-.0353,0-.0908.0076-.1715.0202-.0807.0076-.1715.0177-.2723.0303-.1009.0126-.2093.0252-.3228.0403-.116.0202-.2295.0353-.3429.0504-.116.0126-.2219.0227-.3228.0303-.1009.0126-.1891.0202-.2622.0202-.3177,0-.6254-.0378-.928-.111-.2975-.0656-.58-.1639-.8473-.2925-.2774-.1412-.5321-.3127-.7666-.5144-.237-.2068-.4337-.4337-.5951-.6758-.1488-.2345-.2673-.4892-.353-.7666-.0807-.2824-.121-.5674-.121-.8573,0-.9078.3656-1.6743,1.0994-2.2997.3682-.3152.7767-.5497,1.2205-.7061.4438-.1614.933-.2421,1.4726-.2421.1614,0,.3177.0151.4741.0403.1614.0202.3127.0479.4539.0807.1463.0277.2824.0605.4035.1009.121.0353.2269.0681.3228.1009.0605.0277.1135.0504.1614.0706.0454.0151.0731.0202.0807.0202.0807,0,.1437-.0328.1916-.1009h.2622c0,.0277.0025.0857.0101.1715.005.0883.0101.1916.0101.3127.005.116.0126.2396.0202.3732.0126.1286.0227.2522.0303.3732.005.121.0101.2295.0101.3228.005.0883.0101.1488.0101.1816h-.3934c-.1084-.3228-.2597-.5976-.4539-.8271-.1891-.2345-.4035-.4085-.6455-.5245-.1362-.0605-.2774-.1034-.4236-.1311-.1412-.0328-.29-.0504-.4438-.0504-.7061,0-1.281.2421-1.7248.7262-.4388.4993-.6556,1.1347-.6556,1.9063,0,.2572.0227.4993.0706.7262.053.2295.1311.4488.232.6556.1059.2219.237.4211.3934.5951.1614.1765.3379.3278.5346.4539.1866.1362.3858.232.5951.2925.2143.0605.4362.0908.6657.0908.2269,0,.4463-.0328.6556-.1009.2068-.0656.406-.1639.5951-.2925.1664-.1261.3177-.2774.4539-.4539.1412-.174.2622-.3682.3631-.585h.4035Z"/><circle class="b" cx="43.9451" cy="26.7364" r="3.313"/></svg>