<?xml version="1.0" encoding="UTF-8"?><svg id="a" xmlns="http://www.w3.org/2000/svg" width="229.2" height="95.5" viewBox="0 0 229.2 95.5"><defs><style>.b{fill:#ff3131;}.b,.c,.d,.e{stroke-width:0px;}.c{fill:#fff;}.d{fill:#00ff9b;}.e{fill:#3de2ff;}</style></defs><path class="e" d="m46.6,60.6c-2-1.2-4.4-2-6.6-2.8-1.2-.4-2.5-.6-3.7-.9,0-.3.1-.6.1-.8.7-2.3,2.4-3.8,4.4-4.7,3.5-1.6,7.1-3,10.7-4.4,2.2-.8,4.2-1.9,5.8-3.7.5-.6.9-1.2,1.3-1.8v6.2c-2.3.5-4.5.7-6.6,1.4-2,.7-3.8,1.9-5.7,2.9l.1.2h16.2v-15.6h-5c-.6-.1-1.3.3-1.5.9-1.3,2.3-3.3,4.1-5.8,5-2.8,1-5.6,2.1-8.3,3.2-2.9,1.2-5.8,2.5-8,4.9-3.8,4.2-2.7,9.2,2.5,11.3,1.1.4,2.2.7,3.3,1,1,.3,2,.7,3,1.1,4.8,2.5,5.5,7.1,1.8,10.9-.5-.1-.9-.1-1.3-.1-2.5-.3-5.1-.3-7.4-1-9.9-2.9-19-11.8-19.8-23.6-.1-1.1-.6-1.8-1.7-2.1-1.8-.4-2.8.6-2.6,2.7,1,10.6,6.5,18.3,15.3,23.8,4.1,2.6,8.8,4.1,13.6,4.4l-2.2,1.6,3,4.2c3.2-2.4,7.4-7.3,8.9-10.6,2.5-5.2,1-10.8-3.8-13.6h0Z"/><path class="e" d="m53,36.6l-2.6-.1v-11.1h-15v11.1h-12.5v15.6h6.6l2.7-4.2h-5.2v-7.1h12.7v-11.2h6.6v11.6c2.6-.7,5.6-2.7,6.7-4.6h0Z"/><path class="e" d="m13.5,44.1c1.5.2,2.5-.6,2.7-2.2,1.5-10,7.3-16.6,16.3-20.6,2.3-1,4.8-1.4,7.2-2.1,1.2-.3,1.9-1.3,1.7-2.5s-1-1.7-2.7-1.7c-.9.2-2.3.5-3.7.8-12.1,3.2-21.3,13.3-23.2,25.4-.2,1.7.4,2.7,1.7,2.9Z"/><path class="e" d="m46.4,19.3c.3.1.6.1.9.2,7.6,1.4,13.7,5.4,18.2,11.6,2.3,3.2,3.8,6.8,4.2,10.8.1,1,.5,2.1,1.6,2.1.8,0,1.9-.3,2.4-.9.5-.6.4-1.7.3-2.5-1.9-10.1-7.8-17.3-16.6-22.2-3.2-1.8-6.7-2.9-10.3-3.4-1.6,0-2.5.6-2.6,1.7,0,1.4.5,2.3,1.9,2.6h0Z"/><path class="e" d="m72.1,47.8c-1.3-.1-2.1.8-2.3,2.3-.9,9.7-6,16.6-14.4,21.3-.5.3-.9.8-1.2,1.3-.8,1.6-1.4,3.2-2.1,4.8,6.5-2,11.8-5.9,16-11.4,3.5-4.6,5.6-10,6.1-15.8.1-1.5-.7-2.4-2.1-2.5h0Z"/><path class="c" d="m100.8,39.4l.9.3c-.4,1.8-.8,3.3-1.1,4.6h-11.3v-.7c1.6-1.4,3.1-2.9,4.6-4.6,2.1-2.3,3.1-4.5,3.1-6.5,0-1-.3-1.8-.8-2.4s-1.2-.9-2.1-.9c-.8,0-1.5.2-2.1.7-.6.4-1.2,1.1-1.7,1.8l-.8-.7,1.8-2.6c1.1-1.2,2.6-1.8,4.2-1.8,1.5,0,2.7.5,3.7,1.4s1.5,2.1,1.5,3.6c0,1-.3,2-.9,3s-1.6,2.1-3,3.5l-3.3,3.1h4.4c.6,0,1.1,0,1.4-.1s.5-.2.7-.5c.1-.1.4-.6.8-1.2Z"/><path class="c" d="m114.1,44.3h-8.7v-1c.8-.1,1.3-.2,1.7-.3.4-.2.6-.4.7-.7s.2-.9.2-1.6v-9.9c0-.7-.1-1.2-.2-1.4-.1-.2-.5-.3-1-.4l-1.5-.1v-.9c1.5-.2,3.6-.7,6.5-1.4v14.2c0,.7,0,1.2.1,1.6.1.3.3.5.7.7.4.2.9.3,1.7.3l-.2.9h0Z"/><path class="c" d="m126.1,35.4l-.9.3c-.9-1.9-1.9-2.8-3-2.8-.4,0-.7.1-1,.4-.3.3-.4.6-.4,1.1,0,.9.7,1.6,2.1,2.1,1.3.5,2.2,1.1,2.8,1.7.6.6.9,1.4.9,2.4,0,1.3-.5,2.3-1.6,3-1,.7-2.2,1.1-3.5,1.1-.7,0-1.4-.1-2.1-.3s-1.2-.4-1.5-.6c-.2-.8-.4-2.1-.4-3.8h.8c.4,1,.9,1.9,1.5,2.6s1.4,1.1,2.2,1.1c.4,0,.8-.1,1.1-.4.3-.3.4-.6.4-1.1,0-.4-.1-.8-.4-1.2-.3-.3-.8-.7-1.7-1.1-1-.5-1.9-1-2.6-1.6s-1.1-1.5-1.1-2.5c0-1.1.4-2.1,1.3-2.8.9-.8,2-1.1,3.5-1.1h.2c.8,0,1.7.2,2.5.5.1.3.3.8.4,1.6.4.5.5,1,.5,1.4h0Z"/><path class="c" d="m137.1,43.2l-2.3,1.1c-.4.2-.8.3-1.1.3-2.3,0-3.5-1.2-3.5-3.5v-7.7h-1.8l-.2-.4.8-1h1.1v-2.1l3.2-2.2.4.2v4.1h2.7c.1.1.2.3.2.5,0,.4-.1.7-.4.8h-2.5v6.8c0,1.6.5,2.4,1.6,2.4.4,0,.9-.1,1.4-.4l.4,1.1h0Z"/><path class="c" d="m99,58.8l.6.2c-.3,1-.6,1.9-1,2.7-1.4.3-2.5.4-3.2.4-1.4,0-2.6-.3-3.6-.8s-1.7-1.2-2.1-2c-.5-.8-.7-1.7-.7-2.6,0-1.7.6-3,1.8-4.1,1.2-1,2.8-1.6,4.9-1.6.6,0,1.1,0,1.5.1s1,.2,1.6.3c.2,1.3.3,2.2.4,2.7l-.6.1c-.2-.9-.7-1.6-1.2-1.9-.6-.4-1.2-.6-2-.6-1.2,0-2.2.4-2.8,1.3s-1,2-1,3.2c0,1.5.4,2.7,1.1,3.6s1.7,1.4,2.9,1.4c.7,0,1.3-.2,1.9-.6.6-.3,1.1-.9,1.5-1.8h0Z"/><path class="c" d="m106.6,59.9l.3.4c-.5.7-1,1.1-1.5,1.4-.5.3-1,.4-1.5.4-1.1,0-1.9-.3-2.5-1s-.9-1.5-.9-2.5c0-.6.1-1.1.3-1.6.2-.5.5-.9.9-1.3.8-.8,1.7-1.2,2.5-1.2h0c.7,0,1.4.3,1.9.8s.8,1.1.8,1.8c0,.4-.2.5-.5.6-.7.1-2,.2-3.9.3,0,.8.3,1.5.7,1.9.4.4.9.7,1.5.7.7,0,1.3-.3,1.9-.7h0Zm-2.7-4.7h0c-.3,0-.6.2-.9.5-.2.4-.4.8-.5,1.5h2c.2,0,.4-.1.3-.3v-.1c0-.4-.1-.8-.3-1.1-.1-.3-.3-.5-.6-.5h0Z"/><path class="c" d="m116.7,61.9h-3.8v-.5c.3,0,.5-.1.6-.3s.1-.5.1-1.1v-2.7c0-.5-.1-.9-.3-1.2-.2-.2-.5-.4-.8-.4-.4,0-.8.2-1.2.5v3.9c0,.5,0,.8.1.9.1.1.3.2.7.2v.5h-4v-.5c.5-.1.8-.2.9-.3s.2-.5.2-1v-3.1c0-.5,0-.8-.1-.9-.1-.1-.3-.2-.7-.3v-.5c1-.2,2-.4,3-.6v1.2c.3-.2.7-.5,1-.7s.5-.3.7-.3c.2-.1.4-.1.6-.1.7,0,1.2.2,1.6.7s.6,1.1.6,1.9v3c0,.5.1.8.2.9.1.1.4.2.8.2l-.2.6h0Z"/><path class="c" d="m122.5,61.3l-1.3.6c-.3.1-.5.2-.6.2-1.4,0-2-.7-2-2v-4.5h-1l-.1-.2.5-.6h.7v-1.2l1.9-1.3.2.1v2.4h1.6c.1.1.1.2.1.3,0,.2-.1.4-.2.5h-1.5v4c0,.9.3,1.4.9,1.4.2,0,.5-.1.8-.2v.5h0Z"/><path class="c" d="m131.8,61v.5c-.5.1-1,.2-1.4.2-.5.1-1,.2-1.6.3l-.1-.1v-1c-.4.3-.6.5-.8.6-.5.3-1,.5-1.4.5-.7,0-1.2-.2-1.6-.6-.4-.4-.6-1-.6-1.7v-3.2c0-.4,0-.6-.1-.7-.1-.1-.2-.2-.4-.3l-.4-.1v-.5c.5,0,.9-.1,1.4-.1.6,0,1.1-.1,1.6-.2v4.8c0,.5.1.9.3,1.1.2.2.5.3.8.3.5,0,.9-.2,1.2-.5v-3.9c0-.4,0-.6-.1-.7-.1-.1-.2-.2-.4-.2l-.5-.1v-.5c.6,0,1.1-.1,1.7-.1s1.1-.1,1.5-.2v5.2c0,.4,0,.7.1.8s.3.2.6.2l.2.2h0Z"/><path class="c" d="m135.9,56.3h0c.4-.5.7-.9,1-1.2s.6-.5.9-.5.6.1.8.3.3.4.3.7-.1.5-.2.8c-.1.2-.3.4-.6.4h-.2c-.1,0-.2,0-.3-.1-.3-.2-.5-.3-.8-.3-.4,0-.7.3-1,.9v3c0,.4,0,.6.1.7.1.1.2.2.3.3.2,0,.5.1,1,.1v.5h-4.5v-.5c.5-.1.8-.2.9-.3s.2-.4.2-.9v-3.5c0-.4-.1-.6-.2-.7-.1-.1-.3-.2-.7-.3v-.5c1-.1,2-.3,3-.6v1.7h0Z"/><path class="c" d="m147.6,54.8v.5c-.4.1-.7.2-.8.3s-.3.4-.5.9c-.4.8-1,2.3-1.9,4.5-.8,1.9-1.4,3.4-1.8,4.6-.1.3-.3.4-.6.4s-.5-.1-.8-.3c-.3-.2-.4-.5-.4-.7,0-.3.2-.5.5-.6.6-.3,1.1-.7,1.4-1.2.1-.2.2-.4.3-.6v-.3c0-.2,0-.3-.1-.5-1-2.6-1.6-4.4-2-5.3-.1-.3-.3-.6-.5-.7-.2-.1-.4-.2-.8-.3v-.7h4.1v.5c-.3.1-.5.1-.6.2q-.1.1-.1.2v.3l1.3,3.6c.2-.5.7-1.7,1.2-3.4,0-.1.1-.2.1-.3,0-.3-.3-.5-.8-.6v-.5h2.8Z"/><path class="c" d="m165.3,61.9h-4.9v-.6c.6,0,.9-.1,1.1-.3.2-.2.2-.6.2-1.2v-6.5h-.1l-3.7,8.4h-.5l-3.4-8.3h-.1l-.2,4.3v1.4c0,.5,0,.9.1,1.2,0,.3.2.6.3.7.2.1.6.2,1.2.2v.6h-4v-.6c.5,0,.8-.1,1-.3s.3-.4.4-.7c.1-.7.2-1.7.3-3.1l.2-3.1v-.9c0-.5-.1-.8-.3-1s-.6-.3-1.2-.3v-.6h3.4l3.2,7.1,3.3-7.1h3.3v.6c-.6.1-1,.2-1.2.3s-.2.5-.2,1v.3l.2,6c0,.7.1,1.2.2,1.4.2.2.6.3,1.2.4l.2.7h0Z"/><path class="c" d="m172.3,59.9l.3.4c-.5.7-1,1.1-1.5,1.4-.5.3-1,.4-1.5.4-1.1,0-1.9-.3-2.5-1s-.9-1.5-.9-2.5c0-.6.1-1.1.3-1.6s.5-.9.9-1.3c.8-.8,1.7-1.2,2.5-1.2h0c.7,0,1.4.3,1.9.8s.8,1.1.8,1.8c0,.4-.2.5-.5.6-.7.1-2,.2-3.9.3,0,.8.3,1.5.7,1.9s.9.7,1.5.7c.7,0,1.3-.3,1.9-.7h0Zm-2.7-4.7h0c-.3,0-.6.2-.9.5-.2.4-.4.8-.5,1.5h2c.2,0,.4-.1.3-.3v-.1c0-.4-.1-.8-.3-1.1-.1-.3-.3-.5-.6-.5h0Z"/><path class="c" d="m182.1,61v.5c-.2,0-.7.1-1.4.2-.7.1-1.3.2-1.9.4v-1l-1,.7c-.3.2-.6.3-.8.3-.5,0-1-.1-1.5-.4-.5-.3-1-.7-1.3-1.2s-.5-1.2-.5-2c0-1.1.4-2,1.3-2.8.9-.8,2-1.2,3.2-1.2.1,0,.4,0,.7.1v-2c0-.4-.1-.7-.2-.8-.1-.1-.4-.2-.9-.3v-.5c1.3-.1,2.4-.3,3.2-.6v9.4c0,.5,0,.8.1.9.1.1.3.2.7.2l.3.1h0Zm-3.3-.4v-4.5c-.3-.5-.7-.8-1.2-.8-.2,0-.4.1-.7.2-.3.2-.5.4-.7.9-.2.4-.3,1-.3,1.7,0,.9.2,1.6.6,2.1.4.5.9.7,1.3.7.4-.1.7-.1,1-.3h0Z"/><path class="c" d="m185.1,53.5c-.3,0-.6-.1-.8-.3s-.3-.5-.3-.8.1-.6.3-.8.5-.3.8-.3.6.1.8.3.3.5.3.8-.1.6-.3.8c-.2.2-.4.3-.8.3Zm2.3,8.4h-4.2v-.5c.5,0,.8-.1.9-.3.1-.2.2-.5.2-1.1v-3.1c0-.5-.1-.9-.2-1-.1-.1-.3-.2-.7-.3v-.5c1.1-.1,2.1-.3,3-.6v5.5c0,.4,0,.7.1.9,0,.2.1.3.3.3.1.1.4.1.7.2l-.1.5h0Z"/><path class="c" d="m198,58.8l.6.2c-.3,1-.6,1.9-1,2.7-1.4.3-2.5.4-3.2.4-1.4,0-2.6-.3-3.6-.8s-1.7-1.2-2.1-2c-.5-.8-.7-1.7-.7-2.6,0-1.7.6-3,1.8-4.1,1.2-1,2.9-1.6,4.9-1.6.6,0,1.1,0,1.5.1s1,.2,1.6.3c.2,1.3.3,2.2.4,2.7l-.6.1c-.2-.9-.7-1.6-1.2-1.9-.6-.4-1.2-.6-2-.6-1.2,0-2.2.4-2.8,1.3-.7.9-1,2-1,3.2,0,1.5.4,2.7,1.1,3.6s1.7,1.4,2.9,1.4c.7,0,1.3-.2,1.9-.6s1.1-.9,1.5-1.8h0Z"/><path class="c" d="m206.9,61.1l-1.8.9c-.4,0-.7-.1-1-.3-.2-.2-.3-.4-.4-.6-.8.5-1.2.8-1.4.8-.1.1-.2.1-.4.1-.7,0-1.2-.2-1.6-.6-.4-.4-.6-.9-.6-1.4,0-.4.1-.7.3-1,.2-.2.5-.4,1-.6,1-.4,1.7-.6,2-.7.3-.1.5-.2.7-.4v-.4c0-.5-.1-.9-.3-1.2s-.4-.4-.7-.4c-.2,0-.4.1-.5.3-.2.2-.3.6-.5,1.1-.1.4-.3.5-.7.5-.2,0-.4-.1-.7-.2-.2-.2-.3-.4-.3-.6s0-.3.1-.4c.1-.1.2-.2.5-.4.8-.5,1.7-.9,2.7-1.2.6,0,1.2.1,1.6.4.3.3.6.6.7.9.1.4.2.8.2,1.3v2.8c0,.6.2,1,.5,1,.1,0,.3,0,.6-.1v.4h0Zm-3.3-.5v-2.6c-.4.3-.7.4-.9.5-.3.1-.5.3-.6.5s-.2.4-.2.6c0,.4.1.7.3,1,.2.2.4.3.7.3.2,0,.4-.1.7-.3Z"/><path class="c" d="m210.9,56.3h0c.3-.5.7-.9,1-1.2s.6-.5.9-.5.6.1.8.3.3.4.3.7-.1.5-.2.8c-.2.2-.3.4-.6.4h-.2c-.1,0-.2,0-.3-.1-.3-.2-.5-.3-.8-.3-.4,0-.7.3-1,.9v3c0,.4,0,.6.1.7.1.1.2.2.3.3.2,0,.5.1,1,.1v.5h-4.5v-.5c.5-.1.8-.2.9-.3s.2-.4.2-.9v-3.5c0-.4-.1-.6-.2-.7-.1-.1-.3-.2-.7-.3v-.5c1-.1,2-.3,3-.6v1.7h0Z"/><path class="c" d="m220.9,59.9l.3.4c-.5.7-1,1.1-1.5,1.4s-1,.4-1.5.4c-1.1,0-1.9-.3-2.5-1s-.9-1.5-.9-2.5c0-.6.1-1.1.3-1.6s.5-.9.9-1.3c.8-.8,1.7-1.2,2.5-1.2h0c.7,0,1.4.3,1.9.8s.8,1.1.8,1.8c0,.4-.2.5-.5.6-.7.1-2,.2-3.9.3,0,.8.3,1.5.7,1.9s.9.7,1.5.7c.7,0,1.3-.3,1.9-.7h0Zm-2.7-4.7h0c-.3,0-.6.2-.9.5-.2.4-.4.8-.5,1.5h2c.2,0,.4-.1.3-.3v-.1c0-.4-.1-.8-.3-1.1-.1-.3-.3-.5-.6-.5h0Z"/><path class="d" d="m93.5,71c.1,0,.2,0,.3.1h.3c.2,0,.4,0,.6-.1s.4-.2.5-.3c.1-.1.3-.3.3-.5.1-.2.1-.4.1-.7s0-.5-.1-.7-.2-.3-.3-.5c-.1-.1-.3-.2-.5-.3-.2-.1-.4-.1-.6-.1h-.3c-.1,0-.2,0-.3.1v3h0Zm0,1.9v.4c0,.1.1.2.2.2.1.1.2.1.4.1h.6v.4h-3.5v-.4h.4c.1,0,.2-.1.3-.1s.1-.1.1-.2v-4.6c0-.1,0-.2-.1-.3,0-.1-.1-.1-.2-.2-.1,0-.2-.1-.3-.1h-.4v-.4c.2,0,.4,0,.6-.1h2.6c.2,0,.5,0,.7.1.2,0,.4.1.6.1.2.1.4.1.6.2s.3.2.5.4c.1.1.2.3.3.5.1.2.1.4.1.6,0,.3-.1.6-.2.8-.1.2-.3.4-.6.6s-.5.3-.9.4c-.3.1-.7.1-1,.1h-.5c-.2,0-.4-.1-.5-.1l.2,1.6h0Z"/><path class="d" d="m102.5,71.4c0,.3,0,.6.1.9s.2.5.3.7c.1.2.3.4.4.5.2.1.3.2.5.2.6,0,.9-.4.9-1.3,0-.3,0-.6-.1-.9s-.2-.5-.3-.7c-.1-.2-.3-.4-.4-.5-.2-.1-.3-.2-.5-.2-.6.1-.9.5-.9,1.3h0Zm-1.3.6c0-.3.1-.6.2-.9s.3-.5.5-.7.5-.4.8-.5.7-.2,1-.2.7.1.9.2c.3.1.5.2.8.4.2.2.4.4.5.7.1.3.2.5.2.8s-.1.6-.2.9-.3.5-.5.7-.5.4-.8.5-.6.2-1,.2c-.3,0-.6,0-.9-.1s-.5-.2-.8-.4c-.2-.2-.4-.4-.5-.7s-.2-.6-.2-.9Z"/><path class="d" d="m111.8,67.3v5.7c0,.2.1.4.2.5s.3.2.5.2v.3h-2.6v-.3h.1c.2,0,.4-.1.4-.2.1-.1.1-.3.1-.5v-4.6q0-.1-.1-.1c-.1,0-.1-.1-.2-.1s-.1-.1-.2-.1-.2-.1-.2-.1v-.2s.1,0,.2-.1c.1,0,.2-.1.3-.1s.2-.1.4-.1c.1,0,.3-.1.4-.1s.2-.1.3-.1.2,0,.2-.1l.2.1h0Z"/><path class="d" d="m118.1,73.9s0-.1-.1-.2c0-.1-.1-.2-.2-.3-.1-.1-.1-.3-.2-.4-.1-.2-.2-.3-.2-.5s-.2-.3-.2-.5c-.1-.2-.1-.3-.2-.4s-.1-.2-.2-.3-.1-.1-.1-.1c-.1-.1-.1-.3-.2-.4s-.1-.2-.1-.2c-.1-.1-.2-.2-.3-.2-.1-.1-.2-.1-.3-.1v-.3h2.6v.3c-.2,0-.3,0-.4.1-.1,0-.1.1-.1.2v.2c0,.1.1.2.1.3.1.1.1.2.2.3.1.1.1.2.2.3.1.2.1.3.2.5s.1.3.2.4c0,0,.1-.1.1-.2s.1-.2.1-.3c.1-.1.1-.2.2-.3.1-.1.1-.2.2-.3.1-.1.1-.2.1-.3s.1-.1.1-.2c.1-.1.1-.3.1-.4s-.1-.2-.2-.3c-.1-.1-.3-.1-.5-.1v-.3h1.9v.3c-.1,0-.2.1-.3.1s-.1.1-.2.1l-.2.2c-.1.1-.1.2-.2.3,0,0-.1.1-.1.2-.1.1-.2.3-.3.5-.1.2-.2.5-.4.7-.1.3-.3.5-.4.8s-.3.5-.4.8-.2.5-.4.7c-.1.2-.2.4-.3.5-.1.1-.1.2-.1.2-.1.2-.3.4-.4.5-.2.1-.3.2-.5.2h-.3c-.1,0-.1-.1-.2-.1q-.1-.1-.1-.2v-.2c0-.2,0-.3.1-.4s.2-.2.4-.2h.1c.1,0,.2,0,.3-.1.1,0,.2-.1.3-.1s.2-.1.3-.2c.1-.1.2-.2.2-.4l.3-.2h0Z"/><path class="d" d="m136.8,72.2c0,.3-.1.6-.2.9-.1.3-.2.6-.4.9-.2,0-.4-.1-.6-.1h-.8c-.1,0-.2,0-.4.1h-.6c-.3,0-.6,0-.9-.1-.3-.1-.6-.2-.9-.3-.3-.1-.5-.3-.8-.5-.2-.2-.4-.4-.6-.7-.2-.2-.3-.5-.4-.8-.1-.3-.1-.6-.1-.9,0-.9.4-1.7,1.1-2.4.4-.3.8-.6,1.2-.7.5-.2,1-.2,1.5-.2h.5c.2,0,.3,0,.5.1.1,0,.3.1.4.1s.2.1.3.1.1.1.2.1h.1q.1,0,.2-.1h.3v1.8h-.4c-.1-.3-.3-.6-.5-.8-.2-.2-.4-.4-.7-.5-.1-.1-.3-.1-.4-.1s-.3-.1-.5-.1c-.7,0-1.3.2-1.8.7-.4.5-.7,1.2-.7,1.9,0,.3,0,.5.1.7s.1.5.2.7c.1.2.2.4.4.6l.5.5.6.3c.2.1.4.1.7.1.2,0,.5,0,.7-.1l.6-.3c.2-.1.3-.3.5-.5.1-.2.3-.4.4-.6l.7.2h0Z"/><path class="d" d="m142.4,67.3v5.7c0,.2.1.4.2.5.1.1.3.2.5.2v.3h-2.5v-.3h.1c.2,0,.4-.1.4-.2.1-.1.1-.3.1-.5v-4.6q0-.1-.1-.1c-.1,0-.1-.1-.2-.1s-.1-.1-.2-.1-.2-.1-.2-.1v-.2s.1,0,.2-.1c.1,0,.2-.1.3-.1s.2-.1.4-.1c.1,0,.3-.1.4-.1s.2-.1.3-.1.2,0,.2-.1l.1.1h0Z"/><path class="d" d="m147.8,67.4c.1,0,.2,0,.3.1.1,0,.2.1.2.1q.1.1.2.2c0,.1.1.2.1.3s0,.2-.1.3-.1.2-.2.2c-.1.1-.2.1-.3.1s-.2.1-.3.1-.2,0-.3-.1c-.1,0-.2-.1-.3-.1q-.1-.1-.2-.2c0-.1-.1-.2-.1-.3s0-.2.1-.3c0-.1.1-.2.2-.2.1-.1.2-.1.3-.2h.4Zm1.3,6.6h-2.5v-.3h.1c.2,0,.4-.1.4-.2.1-.1.1-.3.1-.5v-2.1c0-.1-.1-.1-.1-.1,0,0-.1-.1-.2-.1s-.2-.1-.3-.1v-.2c.3-.1.6-.2.9-.3.3-.1.6-.2.9-.3h.2v3.4c0,.2.1.4.2.5.1.1.3.2.5.2l-.2.1h0Z"/><path class="d" d="m157.7,73.1v.3c0,.1.1.1.1.2,0,0,.1.1.2.1h.3v.3h-2.4v-.3c.1,0,.2,0,.3-.1.1,0,.1-.1.2-.2,0-.1.1-.2.1-.3v-1.4c0-.7-.2-1.1-.6-1.1-.1,0-.3,0-.5.1l-.6.3v2c0,.4.2.6.6.6h.1v.3h-2.6v-.3h.1c.2,0,.4-.1.4-.2.1-.1.1-.3.1-.5v-2c0-.1,0-.2-.1-.3-.1-.1-.2-.1-.4-.2h-.2v-.2s.1,0,.2-.1c.1,0,.2-.1.3-.1s.2-.1.4-.1c.1,0,.3-.1.4-.1s.2-.1.3-.1.1-.1.2-.1h.2v.9c.4-.3.7-.5,1.1-.6.3-.1.6-.2.8-.2.4,0,.7.1.8.4.2.3.2.7.2,1.3v1.7h0Z"/><path class="d" d="m163.1,67.4c.1,0,.2,0,.3.1.1,0,.2.1.2.1q.1.1.2.2c0,.1.1.2.1.3s0,.2-.1.3-.1.2-.2.2c-.1.1-.2.1-.3.1s-.2.1-.3.1-.2,0-.3-.1c-.1,0-.2-.1-.3-.1q-.1-.1-.2-.2c0-.1-.1-.2-.1-.3s0-.2.1-.3c0-.1.1-.2.2-.2.1-.1.2-.1.3-.2h.4Zm1.3,6.6h-2.5v-.3h.1c.2,0,.4-.1.4-.2.1-.1.1-.3.1-.5v-2.1c0-.1-.1-.1-.1-.1,0,0-.1-.1-.2-.1s-.2-.1-.3-.1v-.2c.3-.1.6-.2.9-.3.3-.1.6-.2.9-.3h.2v3.4c0,.2.1.4.2.5.1.1.3.2.5.2l-.2.1h0Z"/><path class="d" d="m172.5,73c-.2.4-.5.6-.9.8s-.7.3-1.2.3c-.9,0-1.5-.3-1.9-1-.1-.2-.2-.3-.2-.5s-.1-.4-.1-.6c0-.4.1-.8.3-1.2.1-.2.3-.3.4-.5.2-.1.3-.3.5-.4.4-.2.8-.3,1.3-.3.2,0,.4,0,.6.1.2,0,.3.1.5.2.1.1.2.2.3.3.1.1.1.2.1.4,0,.3-.2.5-.5.5s-.5-.1-.8-.5c-.3-.3-.5-.4-.7-.4-.1,0-.2,0-.4.1-.1.1-.2.2-.3.3-.1.1-.1.3-.2.5,0,.2-.1.4-.1.6,0,.3,0,.5.1.7s.1.4.3.6c.1.2.2.3.4.4s.3.1.5.1.4-.1.7-.2c.2-.1.4-.3.6-.5l.7.2h0Z"/><path class="d" d="m187.8,72.3s0,.1-.1.2c0,.1-.1.2-.1.3s-.1.2-.2.4c-.1.1-.1.3-.2.4,0,.1-.1.2-.1.3s-.1.2-.1.2h-5.4v-.4h.6c.1,0,.2-.1.3-.1q.1-.1.1-.2v-4.3c0-.5-.3-.7-.8-.7h-.2v-.4h3.4v.4h-.3c-.5,0-.7.2-.7.7v4.4q0,.1.1.1s.1.1.2.1h1.5c.2,0,.3,0,.5-.1s.3-.2.4-.3c.1-.1.1-.2.3-.3.1-.1.2-.3.4-.5l.4-.2h0Z"/><path class="d" d="m192.6,73c0,.1,0,.2-.1.3,0,.1-.1.1-.1.2q-.1.1-.2.1h-.6c-.1,0-.1-.1-.2-.1q-.1-.1-.1-.2c0-.1-.1-.2-.1-.3s0-.2.1-.3c0-.1.1-.1.1-.2q.1-.1.2-.1c.1,0,.2-.1.3-.1s.2,0,.3.1c.1,0,.1.1.2.1q.1.1.1.2c.1.1.1.2.1.3h0Z"/><path class="d" d="m203.3,72.3s0,.1-.1.2c0,.1-.1.2-.1.3s-.1.2-.2.4c-.1.1-.1.3-.2.4,0,.1-.1.2-.1.3s-.1.2-.1.2h-5.4v-.4h.6c.1,0,.2-.1.3-.1q.1-.1.1-.2v-4.3c0-.5-.3-.7-.8-.7h-.2v-.4h3.4v.4h-.3c-.5,0-.7.2-.7.7v4.4q0,.1.1.1s.1.1.2.1h1.5c.2,0,.3,0,.5-.1s.3-.2.4-.3c.1-.1.1-.2.3-.3.1-.1.2-.3.4-.5l.4-.2h0Z"/><path class="d" d="m208.2,73c0,.1,0,.2-.1.3,0,.1-.1.1-.1.2q-.1.1-.2.1h-.6c-.1,0-.1-.1-.2-.1q-.1-.1-.1-.2c0-.1-.1-.2-.1-.3s0-.2.1-.3c0-.1.1-.1.1-.2q.1-.1.2-.1c.1,0,.2-.1.3-.1s.2,0,.3.1c.1,0,.1.1.2.1q.1.1.1.2c.1.1.1.2.1.3h0Z"/><path class="d" d="m219.7,72.2c0,.3-.1.6-.2.9-.1.3-.2.6-.4.9-.2,0-.4-.1-.6-.1h-.8c-.1,0-.2,0-.4.1h-.6c-.3,0-.6,0-.9-.1-.3-.1-.6-.2-.9-.3-.3-.1-.5-.3-.8-.5-.2-.2-.4-.4-.6-.7-.2-.2-.3-.5-.4-.8-.1-.3-.1-.6-.1-.9,0-.9.4-1.7,1.1-2.4.4-.3.8-.6,1.2-.7.5-.2,1-.2,1.5-.2h.5c.2,0,.3,0,.5.1.1,0,.3.1.4.1s.2.1.3.1.1.1.2.1h.1q.1,0,.2-.1h.3v1.8h-.4c-.1-.3-.3-.6-.5-.8-.2-.2-.4-.4-.7-.5-.1-.1-.3-.1-.4-.1s-.3-.1-.5-.1c-.7,0-1.3.2-1.8.7-.4.5-.7,1.2-.7,1.9,0,.3,0,.5.1.7s.1.5.2.7c.1.2.2.4.4.6l.5.5.6.3c.2.1.4.1.7.1.2,0,.5,0,.7-.1l.6-.3c.2-.1.3-.3.5-.5.1-.2.3-.4.4-.6l.7.2h0Z"/><circle class="b" cx="43.1" cy="33.6" r="2.3"/></svg>